<?xml version="1.0" encoding="UTF-8"?>
<svg width="120px" height="120px" viewBox="0 0 120 120" version="1.1" xmlns="http://www.w3.org/2000/svg" xmlns:xlink="http://www.w3.org/1999/xlink">
    <!-- Generator: Sketch 55.2 (78181) - https://sketchapp.com -->
    <title>icon_need_8</title>
    <desc>Created with Sketch.</desc>
    <g id="icon_need_8" stroke="none" stroke-width="1" fill="none" fill-rule="evenodd">
        <g id="Group-2" transform="translate(11.000000, 15.000000)">
            <g id="Group" transform="translate(29.000000, 0.000000)">
                <path d="M30.4884946,84.4712488 C27.5641065,87.9936249 24.1720049,90 20.5,90 C8.83850191,90 0,69.7644825 0,45 C0,20.2355175 8.83850191,0 20.5,0 C32.1614981,0 41,20.2355175 41,45 C41,57.7714839 38.6492694,69.3384224 34.7729116,77.546461 C34.2043622,76.6739641 33.3413588,76.0108882 32.3248666,75.6981984 C35.7760535,68.046675 38,57.1447859 38,45 C38,21.7157092 29.8253224,3 20.5,3 C11.1746776,3 3,21.7157092 3,45 C3,68.2842908 11.1746776,87 20.5,87 C23.0465354,87 25.5072656,85.6043452 27.7391553,83.1011242 C28.4484419,83.846709 29.4107846,84.3493135 30.4884946,84.4712488 Z" id="Combined-Shape" fill="#4A4A4A" fill-rule="nonzero"></path>
                <circle id="Oval" stroke="#4A4A4A" stroke-width="3" cx="31" cy="80" r="4.5"></circle>
            </g>
            <g id="Group" transform="translate(49.500000, 45.000000) rotate(-240.000000) translate(-49.500000, -45.000000) translate(29.000000, 0.000000)">
                <path d="M30.4884946,84.4712488 C27.5641065,87.9936249 24.1720049,90 20.5,90 C8.83850191,90 0,69.7644825 0,45 C0,20.2355175 8.83850191,0 20.5,0 C32.1614981,0 41,20.2355175 41,45 C41,57.7714839 38.6492694,69.3384224 34.7729116,77.546461 C34.2043622,76.6739641 33.3413588,76.0108882 32.3248666,75.6981984 C35.7760535,68.046675 38,57.1447859 38,45 C38,21.7157092 29.8253224,3 20.5,3 C11.1746776,3 3,21.7157092 3,45 C3,68.2842908 11.1746776,87 20.5,87 C23.0465354,87 25.5072656,85.6043452 27.7391553,83.1011242 C28.4484419,83.846709 29.4107846,84.3493135 30.4884946,84.4712488 Z" id="Combined-Shape" fill="#4A4A4A" fill-rule="nonzero"></path>
                <circle id="Oval" stroke="#4A4A4A" stroke-width="3" cx="31" cy="80" r="4.5"></circle>
            </g>
            <g id="Group" transform="translate(49.500000, 45.000000) scale(-1, 1) rotate(-240.000000) translate(-49.500000, -45.000000) translate(29.000000, 0.000000)">
                <path d="M30.4884946,84.4712488 C27.5641065,87.9936249 24.1720049,90 20.5,90 C8.83850191,90 0,69.7644825 0,45 C0,20.2355175 8.83850191,0 20.5,0 C32.1614981,0 41,20.2355175 41,45 C41,57.7714839 38.6492694,69.3384224 34.7729116,77.546461 C34.2043622,76.6739641 33.3413588,76.0108882 32.3248666,75.6981984 C35.7760535,68.046675 38,57.1447859 38,45 C38,21.7157092 29.8253224,3 20.5,3 C11.1746776,3 3,21.7157092 3,45 C3,68.2842908 11.1746776,87 20.5,87 C23.0465354,87 25.5072656,85.6043452 27.7391553,83.1011242 C28.4484419,83.846709 29.4107846,84.3493135 30.4884946,84.4712488 Z" id="Combined-Shape" fill="#4A4A4A" fill-rule="nonzero"></path>
                <circle id="Oval" stroke="#4A4A4A" stroke-width="3" cx="31" cy="80" r="4.5"></circle>
            </g>
            <circle id="Oval" stroke="#4A4A4A" stroke-width="3" cx="50" cy="45" r="9.5"></circle>
            <path d="M54.5239732,44.5 C54.6098969,46.4265798 53.7517532,48.0101337 51.9495422,49.2506618" id="Path-32" stroke="#4A4A4A" stroke-width="3" stroke-linecap="round" stroke-linejoin="round"></path>
        </g>
    </g>
</svg>