<?xml version="1.0" encoding="UTF-8"?>
<svg width="120px" height="120px" viewBox="0 0 120 120" version="1.1" xmlns="http://www.w3.org/2000/svg" xmlns:xlink="http://www.w3.org/1999/xlink">
    <!-- Generator: Sketch 55.2 (78181) - https://sketchapp.com -->
    <title>icon_need_7</title>
    <desc>Created with Sketch.</desc>
    <g id="icon_need_7" stroke="none" stroke-width="1" fill="none" fill-rule="evenodd" stroke-linejoin="round">
        <g id="Group-20" transform="translate(14.000000, 15.000000)" stroke="#4A4A4A" stroke-width="3">
            <path d="M62.6770162,48.7850295 L82.6746963,45.6690135" id="Path-12" stroke-linecap="round" transform="translate(72.677016, 47.169013) scale(-1, 1) translate(-72.677016, -47.169013) "></path>
            <path d="M8.17933614,48.7850295 L28.1770162,45.6690135" id="Path-12" stroke-linecap="round"></path>
            <polyline id="Path-22" stroke-linecap="round" points="54.1868329 49.3954682 54.1868329 27.1258897 69.1793361 27.1258897 46.1793361 0 23.1793361 27.1258897 38.1629631 27.1258897 38.1629631 49.3954682"></polyline>
            <polyline id="Path-23" points="8.17933614 49.1690135 0 57.997069 39.2043174 69.8535791 45.6793361 58.5914214"></polyline>
            <polyline id="Path-23" transform="translate(68.019004, 59.511296) scale(-1, 1) translate(-68.019004, -59.511296) " points="53.3586723 49.1690135 45.1793361 57.997069 84.3836535 69.8535791 90.8586723 58.5914214"></polyline>
            <g id="Group-19" transform="translate(8.179336, 60.035180)" stroke-linecap="round">
                <polyline id="Path-24" points="0 1.13383397 0 16.4743068 38 30 62.3572786 21.1267906"></polyline>
                <polyline id="Path-25" points="75 1.13383397 75 15.4699274 69 18.133834"></polyline>
                <path d="M37.5,0.5 L37.5,29.0259226" id="Path-11"></path>
            </g>
            <polyline id="Path-26" stroke-linecap="round" points="8.17933614 49.1690135 45.6793361 58.5914214 83.1793361 49.3954682"></polyline>
        </g>
    </g>
</svg>