<?xml version="1.0" encoding="UTF-8"?>
<svg width="192px" height="60px" viewBox="0 0 192 60" version="1.1" xmlns="http://www.w3.org/2000/svg" xmlns:xlink="http://www.w3.org/1999/xlink">
    <!-- Generator: Sketch 55.2 (78181) - https://sketchapp.com -->
    <title>Group 40 Copy</title>
    <desc>Created with Sketch.</desc>
    <defs>
        <polygon id="path-1" points="0 0.0678858556 12.1040708 0.0678858556 12.1040708 17.465643 0 17.465643"></polygon>
        <polygon id="path-3" points="0.233615658 0.209535839 14.7297224 0.209535839 14.7297224 10.7962443 0.233615658 10.7962443"></polygon>
    </defs>
    <g id="Page-1" stroke="none" stroke-width="1" fill="none" fill-rule="evenodd">
        <g id="Group-40-Copy">
            <g id="Group-45">
                <g id="Group-31" transform="translate(0.000000, 27.887324)">
                    <mask id="mask-2" fill="white">
                        <use xlink:href="#path-1"></use>
                    </mask>
                    <g id="Clip-30"></g>
                    <path d="M2.64327821,5.36659014 C2.5359009,5.53261268 2.38214664,5.81829507 2.1820154,6.22231268 C1.98188416,6.62677183 1.80306127,7.06081479 1.64596451,7.5257662 C1.48844995,7.99027606 1.41157282,8.40047535 1.41533311,8.75548099 C1.41867559,9.11048662 1.57075862,9.32596268 1.87116438,9.40146761 C2.16404955,9.42398662 2.50372949,9.29770352 2.88978641,9.02173521 C3.27584332,8.7457669 3.61176297,8.47598028 3.89796317,8.2110507 C3.99071711,8.12803944 4.06968329,8.06048239 4.1336083,8.00705493 C5.00599665,7.28203099 5.82824774,6.50004718 6.60036157,5.66110352 C7.17944694,5.05706408 7.74766923,4.42962254 8.30544627,3.78010352 C8.21269233,3.77259718 8.11617811,3.73065 8.01590358,3.65514507 C7.31523535,3.13367535 6.63629327,2.89391408 5.97824171,2.93586127 C5.32060797,2.9773669 4.70767995,3.21889437 4.13945765,3.66088521 C3.57081754,4.10287606 3.07195179,4.67159155 2.64327821,5.36659014 M9.52795983,4.52808803 C8.7917777,5.4575493 7.99083495,6.38656901 7.12596719,7.31603028 C6.26068162,8.24549155 5.3974851,9.04248803 4.53595983,9.70746127 C3.67443455,10.371993 2.88268363,10.7746859 2.16070706,10.9142155 C1.43831269,11.0541866 0.855884834,10.8029451 0.412587881,10.1604908 C0.0336337462,9.51847817 -0.0841888182,8.79301268 0.058702377,7.98453592 C0.201593572,7.1765007 0.471499163,6.39230915 0.86841915,5.63284437 C1.26533914,4.87337958 1.66017007,4.24858732 2.05332976,3.75714296 C2.93950586,2.61617958 3.97316907,1.88718169 5.15264814,1.56970775 C6.33254503,1.25267535 7.51870907,1.52864366 8.71281152,2.39717113 C8.89873719,2.5411162 8.99901172,2.71464507 9.01321727,2.91864085 C9.65664546,2.11767042 10.257457,1.2827007 10.8148162,0.41373169 C10.9723308,0.187216901 11.1615989,0.0719725352 11.3834563,0.0678858556 C11.6048959,0.0644661972 11.7908216,0.14394507 11.9408155,0.306435211 C12.0912273,0.468925352 12.1376043,0.6897 12.0803642,0.969200704 C11.4156277,3.39463099 10.6468564,5.77855563 9.77446803,8.1205331 C9.52419953,8.83098592 9.27769133,9.54143873 9.03452561,10.25145 C8.9706006,10.4324852 8.89873719,10.6329486 8.82018882,10.851957 C8.59833144,11.4189063 8.39109742,12.0379585 8.19806897,12.710438 C8.00504051,13.3829176 7.91938935,14.0328782 7.9411155,14.6598782 C7.96242384,15.2868782 8.18010311,15.8123218 8.59498895,16.2353261 C8.80932574,16.4543345 8.87408637,16.683057 8.78801741,16.9210521 C8.70236625,17.1590472 8.54318045,17.3250697 8.3108778,17.4195613 C8.07857516,17.5140528 7.84794376,17.4632746 7.61940141,17.2667852 C7.1184466,16.7753408 6.80759558,16.2110408 6.68601272,15.5725606 C6.56442986,14.9336387 6.55941614,14.2726394 6.67013592,13.5891211 C6.78085571,12.9051613 6.93293873,12.2534345 7.12596719,11.6339408 C7.63318915,9.94148239 8.19096619,8.26801056 8.79888048,6.6130838 C9.04162839,5.9260331 9.28479411,5.23059296 9.52795983,4.52808803" id="Fill-29" fill="#231916" mask="url(#mask-2)"></path>
                </g>
                <path d="M25.1211815,30.489409 C24.9194663,30.6064394 24.7365255,30.6359105 24.5719224,30.5773953 C24.1759144,31.9732177 23.7799065,33.3690401 23.3838985,34.7648625 C22.7935978,36.8479181 22.2076632,38.9309737 21.6247849,41.0140293 C22.282324,40.4656095 22.7678376,40.0854742 23.0817624,39.8736236 C25.2630807,38.2949946 27.6050726,36.9649485 30.1081747,35.883058 C30.4443667,35.3060213 30.74301,34.7101913 31.0049778,34.0964224 C31.0119636,34.0742123 31.0233155,34.0490123 31.0381603,34.0195412 C31.2250307,33.5958399 31.4158306,33.0820166 31.6096867,32.4793528 C31.8039795,31.8762619 31.8917387,31.291537 31.8734009,30.7251783 C31.8546266,30.1588195 31.6096867,29.7184606 31.1390179,29.4041016 C30.6085332,29.1119527 29.962346,29.0038918 29.2004564,29.0807731 C28.4385668,29.1572272 27.6875925,29.3344813 26.9479701,29.6125353 C26.2083478,29.8901621 25.5992727,30.182311 25.1211815,30.489409 M27.6875925,39.1389802 C27.9491236,38.8613534 28.1993029,38.5726215 28.4385668,38.2732116 C27.3252037,38.8434144 26.2380375,39.4678613 25.177068,40.1478335 C23.9964665,40.8786328 22.9171593,41.7264625 21.938273,42.6913226 C21.7666841,42.8813902 21.6060106,43.0787188 21.4566889,43.2833084 C21.3597608,43.4221218 21.2549737,43.5609353 21.1427642,43.6997487 L21.1314123,43.7108538 L21.1204969,43.7215317 C21.9422025,43.5972403 22.7604152,43.2760474 23.5746984,42.7570988 C24.3889816,42.2381501 25.1508712,41.6461642 25.8608039,40.9811412 C26.5702999,40.315691 27.179375,39.7019221 27.6875925,39.1389802 M21.0305547,43.8424062 C21.0157098,43.8641892 21.000865,43.8863994 20.9860201,43.9081824 C21.000865,43.8932333 21.0100339,43.8825553 21.0139634,43.8752943 C21.0178929,43.8680333 21.0235689,43.8569282 21.0305547,43.8424062 M17.2538526,58.9820389 C17.1796284,59.2746149 17.0207012,59.4407639 16.7779444,59.480913 C16.5351876,59.5210621 16.3107686,59.4608385 16.1055605,59.300242 C15.8999158,59.1396455 15.8160861,58.9094288 15.8531982,58.6095918 C16.6600589,54.5237788 17.5957205,50.4695726 18.6606195,46.4461189 C19.7250819,42.4226652 20.832769,38.4086081 21.9832442,34.4030933 C22.7302889,31.7797332 23.4659818,29.1521018 24.1911959,26.5206264 C24.288124,26.2357386 24.4618959,26.0751421 24.7120752,26.0384099 C24.9622544,26.0021049 25.1862368,26.0623286 25.3844591,26.2190809 C25.5822448,26.3766876 25.6516662,26.6047687 25.5918503,26.9046057 C25.4049799,27.5696288 25.2220391,28.2308078 25.0425912,28.8885699 C25.8271847,28.4793906 26.7331565,28.1505096 27.7605068,27.9019268 C28.7874205,27.6537711 29.7680532,27.6046525 30.7019684,27.7541439 C31.6358835,27.9040624 32.3567315,28.3662043 32.864949,29.1409967 C33.1862961,29.7039386 33.3356177,30.3138634 33.3133505,30.9716255 C33.2906466,31.6293875 33.1749442,32.2858683 32.9658066,32.9397863 C32.756669,33.5941314 32.5326865,34.1912427 32.2934226,34.7319744 C32.2711553,34.7977506 32.2445219,34.8601098 32.2152689,34.918625 C32.192565,34.9621911 32.1737907,35.0061843 32.1589458,35.0501774 C34.474741,34.1656156 36.8136766,33.4202943 39.1744429,32.8133593 C39.4805085,32.7480102 39.7158429,32.8120779 39.880446,33.0055625 C40.0446125,33.199047 40.1061749,33.4181587 40.0655699,33.6633246 C40.0240917,33.9080633 39.8577421,34.0780564 39.5665213,34.1733037 C36.6752703,34.911364 33.8547505,35.861275 31.1058353,37.0234637 C30.2540035,38.3825539 29.2563428,39.6288849 28.1132901,40.7616024 C27.3736678,41.4996627 26.5799054,42.1924485 25.732003,42.8395326 C24.8841007,43.4861896 23.9894807,44.0397348 23.0477065,44.5001683 C22.7040921,44.6825477 22.3010984,44.8546764 21.8374154,45.0152728 C21.3741691,45.1762964 20.9296971,45.2198625 20.5039994,45.1468253 C19.2640186,49.7221157 18.1807819,54.3341384 17.2538526,58.9820389" id="Fill-32" fill="#231916"></path>
                <path d="M40.4786387,38.3584864 C40.4581061,38.6601389 40.3393392,38.8620999 40.122338,38.965229 C39.9053367,39.0679284 39.6915563,39.0679284 39.4813992,38.965229 C39.2712422,38.8620999 39.1593195,38.6601389 39.1456311,38.3584864 C39.1870988,36.7260393 39.3658531,35.1159368 39.6831017,33.5277493 C39.4761654,33.3730557 39.4177885,33.1380074 39.5071656,32.821745 C39.9689475,31.5571249 40.40295,30.2847701 40.8095757,29.00554 C41.0503303,28.1749214 41.2983317,27.3473107 41.5531773,26.523997 C41.6566455,26.2369545 41.8253347,26.0758153 42.0596478,26.0388608 C42.2939608,26.0019062 42.5004945,26.0607757 42.6796513,26.2150396 C42.8588082,26.3697332 42.9139644,26.5974765 42.8451198,26.899129 C42.5971184,27.7740072 42.335026,28.6415804 42.0596478,29.5018486 C41.6324895,30.9430773 41.2709549,32.4010643 40.9746416,33.8749505 C40.6783282,35.3492663 40.5128597,36.8437783 40.4786387,38.3584864" id="Fill-34" fill="#231916"></path>
                <path d="M49.4429973,28.290393 C48.7987607,28.3542093 48.1815965,28.6538143 47.5919276,29.1892081 C47.0018357,29.7246019 46.4971907,30.329199 46.0771468,31.0025852 C46.5982889,31.0523121 47.1249301,30.9549302 47.6570703,30.7100248 C48.1892106,30.4655338 48.6397109,30.2015665 49.0089942,29.9177083 C49.2111906,29.7689418 49.4341142,29.5634036 49.6764961,29.3006794 C49.9188779,29.038784 50.0525475,28.8025809 50.0779278,28.5933132 C50.1037311,28.3844599 49.8918056,28.2833484 49.4429973,28.290393 M47.7277122,37.1824051 C46.4248569,37.1185888 45.4020309,36.6523984 44.6600802,35.7838339 C43.9185525,34.9152694 43.6596734,33.8498689 43.8838661,32.5876325 C44.1448601,31.4318947 44.7002656,30.352405 45.5505056,29.3487488 C46.4011686,28.3455071 47.3838091,27.6132774 48.4984272,27.1520597 C49.1134764,26.9328466 49.6963773,26.8988665 50.2462837,27.0513626 C50.7966132,27.2038586 51.1857778,27.5018061 51.4137774,27.9447906 C51.6417771,28.387775 51.5749423,28.9430596 51.2128501,29.6094011 C50.86514,30.1907923 50.3714932,30.7120968 49.7306407,31.1729001 C49.0902112,31.6337034 48.391407,31.9689461 47.6354971,32.1777994 C46.8787412,32.3870671 46.1494806,32.4065435 45.4477154,32.2362286 C45.4401013,32.2507323 45.4329102,32.2685511 45.4257192,32.2896851 C45.4185281,32.3182781 45.4075299,32.3464567 45.3931478,32.3746353 C45.0818161,33.3816066 45.1418828,34.1511315 45.5725019,34.6827958 C46.0031209,35.21446 46.6253612,35.537271 47.4400688,35.6508142 C48.2539304,35.7643575 49.0703299,35.7005412 49.8879985,35.4593654 C51.11852,35.0976016 52.3181621,34.5816842 53.4873478,33.9116133 C54.6561105,33.2415423 55.6895116,32.4562704 56.5871282,31.5557978 C56.8113208,31.3573043 57.0380515,31.3005326 57.2660511,31.3854829 C57.4940508,31.4708475 57.6531007,31.6266587 57.7436237,31.8537452 C57.8337238,32.0804174 57.7816942,32.3041888 57.5858429,32.5238162 C56.7897475,33.332294 55.8472925,34.0943599 54.7576317,34.8104283 C53.6683939,35.5269112 52.5173974,36.1045729 51.3050652,36.5442422 C50.0927329,36.9839116 48.9002819,37.1969088 47.7277122,37.1824051" id="Fill-36" fill="#231916"></path>
                <path d="M60.542793,39.0154183 C59.4096067,39.1203638 58.4354123,38.9174985 57.6202098,38.4068224 C56.8045856,37.8957073 56.2778459,37.0394576 56.0395689,35.8371953 C55.8232218,34.574776 55.9063025,33.3198214 56.2888108,32.0727707 C56.6713192,30.82572 57.2988522,29.7415762 58.1722533,28.8212176 C59.0452327,27.9008591 60.1058816,27.3014843 61.3546217,27.0235325 C62.1268078,26.888289 62.7581364,26.9616191 63.2490292,27.2430837 C63.7399219,27.5249874 64.0625448,27.9214969 64.2177411,28.4321729 C64.3729374,28.9432881 64.3332949,29.4671372 64.0988135,30.0045985 C63.8639103,30.5420598 63.4075993,30.9908225 62.7294588,31.3513255 C62.4481655,31.4716396 62.2060929,31.4549537 62.0040846,31.3008287 C61.8020764,31.1467038 61.6882095,30.9455949 61.6633275,30.6975021 C61.6380237,30.4498483 61.7552644,30.250935 62.0150496,30.1003228 C62.3254423,29.9352204 62.5599237,29.719182 62.7184939,29.4522077 C62.8774858,29.1856726 62.9095372,28.9450445 62.8159133,28.7312016 C62.7218677,28.5169197 62.4481655,28.4058268 61.9931197,28.398362 C61.6831487,28.4058268 61.363478,28.4791569 61.0353727,28.6183523 C60.7068457,28.7575478 60.4129005,28.9134291 60.1531153,29.0859964 C58.84702,29.9576146 57.9702451,31.1638288 57.5227904,32.7037608 C57.378559,33.2298055 57.2988522,33.8177635 57.2845134,34.467635 C57.2701746,35.1179457 57.3726548,35.7168813 57.5932192,36.2653202 C57.8129401,36.813759 58.2081003,37.2045601 58.7782782,37.4372844 C59.6946957,37.7380695 60.6203912,37.7512426 61.5549431,37.4768036 C62.4894949,37.2028037 63.3970561,36.7575539 64.2772049,36.1414933 C65.1577754,35.5254327 65.9767735,34.8544842 66.7346208,34.1295262 C67.4924682,33.4045682 68.1491005,32.7415236 68.7049395,32.1403925 C68.9280343,31.9300624 69.1553463,31.8716618 69.3864539,31.9656297 C69.6175615,32.0595976 69.7765534,32.2247001 69.8630079,32.4613763 C69.9494623,32.6980525 69.895481,32.9369242 69.7006421,33.1771132 C68.8850179,34.0487314 68.0010735,34.9089329 67.0483873,35.7581569 C66.0957011,36.6073809 65.0763817,37.3323389 63.9904291,37.9334701 C62.9044764,38.5346012 61.7552644,38.8951043 60.542793,39.0154183" id="Fill-38" fill="#231916"></path>
                <path d="M74.6080459,28.290393 C73.9638093,28.3542093 73.346645,28.6538143 72.7569761,29.1892081 C72.1668842,29.7246019 71.6622393,30.329199 71.2421953,31.0025852 C71.7633375,31.0523121 72.2899786,30.9549302 72.8221189,30.7100248 C73.3542591,30.4655338 73.8047594,30.2015665 74.1740428,29.9177083 C74.3762391,29.7689418 74.5991627,29.5634036 74.8415446,29.3006794 C75.0839264,29.038784 75.217596,28.8025809 75.2429763,28.5933132 C75.2687796,28.3844599 75.0568541,28.2833484 74.6080459,28.290393 M72.8927607,37.1824051 C71.5899054,37.1185888 70.5670794,36.6523984 69.8251287,35.7838339 C69.083601,34.9152694 68.824722,33.8498689 69.0489146,32.5876325 C69.3099087,31.4318947 69.8653142,30.352405 70.7155542,29.3487488 C71.5662171,28.3455071 72.5488577,27.6132774 73.6634758,27.1520597 C74.278525,26.9328466 74.8614258,26.8988665 75.4113323,27.0513626 C75.9616617,27.2038586 76.3508263,27.5018061 76.578826,27.9447906 C76.8068257,28.387775 76.7399909,28.9430596 76.3778986,29.6094011 C76.0301885,30.1907923 75.5365418,30.7120968 74.8956892,31.1729001 C74.2552597,31.6337034 73.5564555,31.9689461 72.8005456,32.1777994 C72.0437898,32.3870671 71.3145292,32.4065435 70.612764,32.2362286 C70.6051499,32.2507323 70.5979588,32.2685511 70.5907677,32.2896851 C70.5835766,32.3182781 70.5725785,32.3464567 70.5581963,32.3746353 C70.2468647,33.3816066 70.3069314,34.1511315 70.7375504,34.6827958 C71.1681695,35.21446 71.7904098,35.537271 72.6051173,35.6508142 C73.4189789,35.7643575 74.2353785,35.7005412 75.0530471,35.4593654 C76.2835685,35.0976016 77.4832106,34.5816842 78.6523963,33.9116133 C79.821159,33.2415423 80.8545602,32.4562704 81.7521767,31.5557978 C81.9763693,31.3573043 82.2031,31.3005326 82.4310997,31.3854829 C82.6590994,31.4708475 82.8181492,31.6266587 82.9086723,31.8537452 C82.9987723,32.0804174 82.9467427,32.3041888 82.7508914,32.5238162 C81.9547961,33.332294 81.012341,34.0943599 79.9226802,34.8104283 C78.8334425,35.5269112 77.6824459,36.1045729 76.4701137,36.5442422 C75.2577815,36.9839116 74.0653305,37.1969088 72.8927607,37.1824051" id="Fill-40" fill="#231916"></path>
                <path d="M96.2559205,28.2156786 C95.7782683,28.9222792 95.3979234,29.7131976 95.1157321,30.5884338 C94.8335407,31.4636699 94.7882716,32.2963081 94.9799248,33.0850307 C95.171578,33.8741924 95.7380761,34.4907662 96.6794191,34.9338738 C97.7218771,35.3471187 98.8294888,35.4634949 100.002677,35.2834412 C101.175019,35.1029485 102.294054,34.810032 103.358512,34.4038135 C103.669049,32.7657649 103.796395,31.112785 103.738434,29.4444347 C103.730818,29.0158193 103.702049,28.5274788 103.651703,27.978974 C103.600511,27.4304693 103.497281,26.9008482 103.342012,26.3896716 C103.185474,25.8789342 102.941783,25.4692024 102.608822,25.1609155 C102.108747,24.7327393 101.55198,24.5693736 100.936405,24.6708184 C100.32083,24.7722633 99.7061012,25.0296082 99.0905264,25.4428531 C98.4749515,25.8560981 97.9156457,26.3202851 97.412609,26.8349749 C96.9091491,27.3496647 96.5237273,27.8098993 96.2559205,28.2156786 M93.7800827,33.9642192 C93.4395069,34.7608466 93.1103542,35.7041519 92.7917783,36.7936957 C92.4736255,37.8832396 92.2324725,38.9951804 92.0695884,40.1299572 C91.9067044,41.2647341 91.8906275,42.2980661 92.0209348,43.2299533 C92.151242,44.1618405 92.5007024,44.8662453 93.0688928,45.3436069 C93.6370832,45.8205294 94.4895803,45.9500802 95.6259611,45.7322592 C97.0309948,45.409041 98.2215293,44.7327421 99.1988337,43.7033625 C100.176138,42.6735437 100.974482,41.4750894 101.593441,40.1075603 C102.212401,38.7400313 102.680745,37.3874335 102.999744,36.0497669 C102.659168,36.1551642 102.319016,36.2487042 101.979286,36.3312654 C101.037943,36.579388 100.045831,36.7203568 99.0037959,36.7541718 C97.9609148,36.7879867 96.9836104,36.6153988 96.0710365,36.2359687 C95.1593088,35.8560995 94.431619,35.1745308 93.8888131,34.189945 C93.8596209,34.144712 93.838044,34.0959658 93.8232364,34.0432672 C93.8088518,34.0134046 93.7944673,33.9870553 93.7800827,33.9642192 M93.2914305,47.175323 C92.2345879,46.8521048 91.4870135,46.2394834 91.0487073,45.3378979 C90.6108241,44.4363124 90.397171,43.3748745 90.4081709,42.1535841 C90.4191709,40.9322937 90.571055,39.6776275 90.8642463,38.3887072 C91.1574377,37.0997869 91.5085903,35.9070415 91.9177043,34.810032 C92.3268183,33.7130225 92.7088555,32.8373472 93.0633928,32.1834452 C93.1573156,32.0257885 93.2694306,31.9203913 93.4001609,31.8676927 C93.4720837,30.7632175 93.7855827,29.6943139 94.3393885,28.6609819 C94.8931943,27.6280891 95.5138461,26.7392391 96.2017669,25.9953103 C96.7449958,25.4015726 97.4363012,24.8381365 98.276106,24.304563 C99.1159109,23.7709896 99.9921003,23.4306443 100.904251,23.2844057 C101.816402,23.1377279 102.645207,23.3498398 103.390666,23.9211806 C103.853933,24.32696 104.206778,24.8267185 104.449201,25.4204562 C104.692046,26.0137548 104.86043,26.6395509 104.954776,27.2969661 C105.048276,27.9548205 105.10666,28.576225 105.128237,29.1624971 C105.207775,30.7109581 105.128237,32.2585407 104.889622,33.8065626 C105.924042,33.3709207 106.934769,32.8579875 107.918843,32.2682021 C108.903763,31.6779776 109.80449,30.9924565 110.623141,30.2107604 C110.854564,30.0157755 111.087678,29.9648335 111.323331,30.0588127 C111.558561,30.1527919 111.719753,30.3161576 111.806484,30.5489098 C111.893214,30.7821012 111.832291,31.0113402 111.622446,31.2366267 C110.637526,32.1759796 109.542607,33.0046653 108.336841,33.7222448 C107.131499,34.4398242 105.877927,35.0427842 104.574854,35.5311247 C104.422547,36.2302597 104.241048,36.9175375 104.030779,37.5938364 C103.697819,38.7286132 103.209589,39.9235543 102.565245,41.1786597 C101.920478,42.4333259 101.141173,43.5865473 100.224792,44.6387629 C99.3092564,45.6909786 98.2684907,46.4687224 97.1029177,46.9719941 C95.9373447,47.4757051 94.6668489,47.543335 93.2914305,47.175323" id="Fill-42" fill="#231916"></path>
                <path d="M115.119445,16.7763045 C114.944074,16.8803226 114.865562,16.9618035 114.88391,17.0207471 C114.901831,17.0805575 114.973089,17.1247652 115.097257,17.1546704 C115.097257,17.0580202 115.098964,16.9730721 115.102804,16.8985258 C115.106645,16.8244129 115.111765,16.7836724 115.119445,16.7763045 M114.93298,18.6343283 C114.53146,19.5241167 114.186264,20.445544 113.898245,21.3986101 C113.6098,22.3516762 113.345249,23.3064759 113.104167,24.2630093 C112.994933,24.6708471 112.885272,25.0791182 112.775612,25.486956 C112.585732,26.1765095 112.399694,26.8699637 112.217068,27.5668852 C112.85967,25.9281662 113.421627,24.2630093 113.903366,22.5722813 C113.947742,22.4240555 113.991265,22.2753962 114.035214,22.1271704 C114.400038,20.985138 114.699578,19.8205684 114.93298,18.6343283 M104.17814,50.2163994 C104.163633,50.3498893 104.149125,50.6095012 104.134618,50.9952351 C104.134618,51.0914519 104.130777,51.1876687 104.123097,51.2843189 C104.598435,50.2757764 105.003368,49.2299608 105.339177,48.1473054 C105.674985,47.0642167 105.985619,45.9815613 106.270224,44.8989059 C106.364951,44.5352759 106.463517,44.1720793 106.565924,43.8088826 C107.033155,42.0882494 107.485451,40.3637155 107.924093,38.6361477 C107.807179,38.8732224 107.694105,39.1033625 107.584444,39.3257013 C105.934416,42.7890716 104.798981,46.4193043 104.17814,50.2163994 M104.703828,53.1644465 C104.185394,53.794623 103.701522,54.0282304 103.25264,53.8652687 C102.803757,53.7018735 102.560968,53.2199229 102.524272,52.4189833 C102.531952,51.0546122 102.703484,49.6768053 103.038866,48.2864297 C103.375101,46.896054 103.747605,45.5589877 104.156379,44.2760974 C104.448238,43.3117627 104.816902,42.2308409 105.262372,41.0333322 C105.707841,39.8353901 106.242489,38.637448 106.866744,37.4399393 C107.491425,36.2424305 108.215952,35.1649761 109.04118,34.2084427 L109.04118,34.1859054 L109.04118,34.1750702 C108.807351,34.0268444 108.690863,33.800605 108.690863,33.4963519 C108.690863,33.1920989 108.851301,32.9662929 109.172175,32.8176336 C109.25282,32.7881618 109.332612,32.7508887 109.413257,32.706681 C110.245739,29.3247915 111.143931,25.965006 112.107408,22.6277576 C112.209814,22.2866649 112.311794,21.9308362 112.414201,21.5598382 C112.640349,20.6847857 112.90874,19.8075661 113.219374,18.9290463 C113.529154,18.0500931 113.932808,17.2621558 114.42948,16.5648009 C114.816492,16.0607464 115.175769,15.8067688 115.508164,15.8028169 C115.840133,15.7994009 116.099563,15.9718976 116.285602,16.3203583 C116.472068,16.6688191 116.539485,17.1208645 116.488282,17.6773615 C116.291149,19.3533536 115.939126,21.0185105 115.431359,22.6723988 C114.924019,24.3258536 114.367183,25.9316335 113.761276,27.489305 C113.66655,27.7337476 113.567557,28.0007274 113.465577,28.2902446 C113.253936,28.8835813 113.012854,29.5120242 112.742756,30.1760066 C112.472658,30.8395555 112.158611,31.4757998 111.801041,32.083439 C112.852417,31.5941204 114.027534,31.479267 115.327246,31.7384455 C115.619532,31.8203598 115.783809,31.9833216 115.820505,32.2281976 C115.857201,32.4730736 115.794476,32.6954123 115.634039,32.8956472 C115.473602,33.0958821 115.243614,33.1738957 114.944074,33.1292546 C114.016866,32.944189 113.168171,33.0365051 112.39756,33.4075031 C111.627376,33.7785011 110.932291,34.3159281 110.311023,35.0202175 C110.274754,35.1389716 110.241899,35.2616263 110.212883,35.3873148 C110.125411,35.7509449 110.033672,36.1145749 109.938945,36.4777716 C109.90225,36.6112615 109.869394,36.7486521 109.840379,36.88951 C109.008324,40.270966 108.106292,43.6342189 107.135135,46.9792685 C107.033155,47.3203613 106.931175,47.6727227 106.828341,48.0363528 C106.587685,48.9335091 106.304787,49.8341328 105.979645,50.7390905 C105.654931,51.6440482 105.229516,52.4523558 104.703828,53.1644465" id="Fill-44" fill="#231916"></path>
                <path d="M136.823285,43.099702 C135.064343,43.701739 133.323894,44.3973212 131.601937,45.1868779 C129.87998,45.9760055 128.249626,46.8994435 126.711735,47.9567629 C126.60121,48.037435 126.469181,48.1550103 126.31436,48.3094888 C126.218887,48.4047505 126.119543,48.4965794 126.016329,48.5845463 L126.204265,48.5845463 C126.491544,48.5991359 126.715605,48.5957031 126.877738,48.5738186 C128.054809,48.3386681 129.210378,47.9953825 130.344014,47.5439621 C131.47679,47.0925416 132.573441,46.5947776 133.633106,46.0515283 C135.91457,44.9135368 138.100131,43.5807308 140.189788,42.0535394 C139.049271,42.3616381 137.926817,42.710502 136.823285,43.099702 M130.332403,49.0363959 C130.200374,49.0874596 130.063616,49.1389524 129.924276,49.1904452 C129.416377,49.3886926 128.86031,49.5852236 128.257367,49.779609 C127.653994,49.9744235 127.050191,50.104872 126.446818,50.1709545 C125.843875,50.237037 125.29211,50.1782493 124.791091,49.9945916 C124.143852,49.7079482 123.875065,49.350073 123.98516,48.920537 C124.095685,48.491001 124.373933,48.0743382 124.819045,47.6705486 C125.264156,47.266759 125.65594,46.9547983 125.994396,46.7342374 C127.576584,45.6473096 129.259835,44.6968378 131.044581,43.8815347 C132.828896,43.0666608 134.629984,42.3470485 136.447843,41.7231271 C138.486324,40.99622 140.587593,40.4195003 142.75079,39.9938263 C145.230941,37.8641688 147.33221,35.4302745 149.053737,32.6917143 C149.819242,31.4580319 150.501746,30.0557106 151.101248,28.4838921 C151.701181,26.9129317 152.067161,25.3269526 152.200049,23.7259548 C152.332508,22.1253861 152.076622,20.6642771 151.432824,19.3421988 C150.789025,18.0205496 149.609373,17.0001334 147.894727,16.2805211 C145.775396,15.4656471 143.429854,15.1536864 140.85767,15.3442099 C138.285486,15.5351624 136.017354,16.2105767 134.052844,17.3708817 C133.80255,17.5103415 133.581499,17.5232147 133.390553,17.4095013 C133.198747,17.295788 133.07575,17.1267199 133.020272,16.9027261 C132.965225,16.6787323 133.018552,16.4641789 133.180254,16.2586367 C134.53451,14.7606245 135.83716,13.2115486 137.088202,11.6105508 C138.338814,10.0099821 139.502123,8.35405856 140.576411,6.64320937 C140.665003,6.50374963 140.756606,6.36042793 140.852079,6.21367337 C141.242143,5.63352085 141.611994,5.01131586 141.961632,4.34662928 C142.31127,3.6823718 142.53017,3.0159688 142.618762,2.34784936 C142.655317,1.87797731 142.566725,1.60635265 142.353416,1.53254626 C142.139676,1.45916899 141.87519,1.49607218 141.558666,1.64282674 C141.242143,1.78958129 140.951853,1.95521656 140.686506,2.1384452 C139.788973,2.75507181 138.992503,3.51502012 138.297098,4.41829013 C137.601692,5.32156014 136.979397,6.27975583 136.431501,7.29287721 C135.882746,8.30599859 135.380867,9.29380266 134.924574,10.2558603 C134.379689,11.386557 133.868779,12.5357052 133.390553,13.7033051 C132.889964,16.0676841 132.370883,18.4247683 131.833739,20.7741285 C131.782132,21.0092791 131.730525,21.2440006 131.679348,21.4791511 C131.495283,22.3090439 131.296595,23.1367911 131.082856,23.9628218 C130.869546,24.7888526 130.615812,25.5947153 130.321651,26.3804101 C130.307029,26.4095893 130.295418,26.4391977 130.288537,26.468377 C130.163389,26.8356925 129.988355,27.199146 129.764294,27.5587376 C129.539374,27.9187583 129.217689,28.1058489 128.798382,28.1204385 C128.459925,28.0912593 128.231134,27.9153254 128.113728,27.5917788 C127.98858,27.1957132 127.961057,26.7623152 128.031156,26.2924432 C128.100826,25.8225711 128.191138,25.3711507 128.301663,24.9373236 C128.345529,24.7686846 128.382515,24.6112023 128.411759,24.4640187 C128.882673,22.4081676 129.460673,20.3814957 130.144897,18.3840031 C130.711285,16.673583 131.33315,14.9738906 132.010493,13.2849259 C132.172626,12.5357052 132.330887,11.7907757 132.484849,11.0488499 C133.198747,7.65633075 133.934578,4.27153557 134.692772,0.894035207 C134.773623,0.600096984 134.935326,0.433174402 135.178739,0.392838354 C135.421292,0.352502306 135.642343,0.413006378 135.84103,0.57435057 C136.039717,0.73612387 136.113257,0.967412485 136.06165,1.26821642 C135.590736,3.37598948 135.130142,5.48676629 134.682021,7.60140507 C134.96887,7.07274537 135.266901,6.5513805 135.576114,6.03731044 C135.892207,5.50865075 136.291732,4.88644575 136.773828,4.17069545 C137.255495,3.45451604 137.80167,2.76279573 138.412784,2.09424719 C139.023468,1.42612776 139.680598,0.892318779 140.382885,0.491962047 C141.085601,0.0916053147 141.812831,-0.0641604879 142.563284,0.0238064254 C143.438885,0.1778558 143.91324,0.627559825 143.98721,1.3729185 C144.06075,2.11827718 143.854752,3.05072646 143.369215,4.17069545 C142.883248,5.29023534 142.229989,6.49087643 141.409866,7.77218961 C140.589313,9.0535028 139.722314,10.3052076 138.810158,11.5277331 C137.897573,12.7502587 137.051216,13.8427648 136.271519,14.8048225 C137.889832,14.2611441 139.603187,13.9418885 141.409866,13.8466268 C143.216114,13.750936 144.958714,13.9122802 146.636374,14.3310885 C148.314465,14.7494677 149.760324,15.4617852 150.974381,16.4680408 C152.137261,17.4811622 152.924269,18.6427546 153.336696,19.9536761 C153.748692,21.2641686 153.87771,22.646751 153.723319,24.1005651 C153.568928,25.5543793 153.22273,27.0047606 152.685586,28.4508508 C152.148442,29.8977993 151.508084,31.2649338 150.764942,32.5535419 C150.02137,33.842579 149.270917,34.9749921 148.513152,35.9516393 C147.511975,37.2441093 146.419195,38.4700677 145.234812,39.6303727 C146.831191,39.4540098 148.42112,39.446715 150.002877,39.6080592 C150.305209,39.6522572 150.506907,39.7955789 150.610551,40.0380243 C150.713335,40.2800406 150.715485,40.5096128 150.615712,40.7263118 C150.516368,40.9425816 150.31209,41.0434217 150.002877,41.0292612 C147.795814,40.8159951 145.594771,40.9151188 143.40233,41.3266323 C139.465138,44.6968378 135.108639,47.266759 130.332403,49.0363959" id="Fill-46" fill="#231916"></path>
                <path d="M157.364599,33.9129611 C157.257112,34.0726343 157.103201,34.347391 156.902867,34.7359573 C156.702532,35.1249482 156.523527,35.5423916 156.365852,35.9895613 C156.208596,36.4363064 156.131641,36.8308179 156.135405,37.1722467 C156.138751,37.5136754 156.290988,37.7209108 156.591281,37.7935281 C156.885301,37.8151859 157.224908,37.6937323 157.611357,37.4283182 C157.997807,37.1629041 158.334068,36.9034352 158.620559,36.6486377 C158.713408,36.5688011 158.792036,36.5038277 158.856444,36.4524435 C159.72972,35.7551475 160.552807,35.0030701 161.325706,34.1962111 C161.90538,33.6152726 162.474598,33.0118271 163.032524,32.3871484 C162.939258,32.3799291 162.843064,32.3395862 162.742687,32.2669689 C162.041307,31.7654423 161.361674,31.5348505 160.702953,31.5751935 C160.044651,31.6151118 159.430681,31.8474022 158.861881,32.2724895 C158.293081,32.6975768 157.793708,33.2445422 157.364599,33.9129611 M164.256699,33.1065268 C163.51935,34.0004416 162.717593,34.8939318 161.851846,35.7878466 C160.98568,36.6817613 160.121606,37.4482774 159.259205,38.0878192 C158.396803,38.7269365 157.604247,39.1142288 156.881537,39.2484222 C156.158408,39.3830402 155.575388,39.1414072 155.13164,38.5235231 C154.7523,37.9060636 154.634358,37.208343 154.776976,36.4307857 C154.920431,35.6536532 155.190611,34.8994524 155.587935,34.1690327 C155.98484,33.438613 156.380072,32.8377154 156.77405,32.3650659 C157.661546,31.2677377 158.695842,30.5666198 159.87652,30.2612874 C161.057199,29.9563796 162.245405,30.2217937 163.440304,31.0571051 C163.626837,31.1955451 163.726795,31.3624375 163.741015,31.5586316 C164.385098,30.7882937 164.98652,29.9852567 165.544864,29.1495207 C165.702121,28.9316687 165.891582,28.8208318 166.113664,28.8169014 C166.335329,28.8136125 166.521862,28.8900518 166.672009,29.0463276 C166.821737,29.2026035 166.868579,29.4149348 166.811281,29.6837462 C166.145869,32.0164179 165.376316,34.3091714 164.50304,36.5615818 C164.252935,37.244864 164.005758,37.9281461 163.762763,38.6110036 C163.698355,38.7851152 163.626837,38.9779121 163.54779,39.1885447 C163.326126,39.7338115 163.118681,40.3291885 162.925456,40.9759496 C162.731813,41.6227108 162.646075,42.2478142 162.667823,42.8508351 C162.688735,43.453856 162.907472,43.9592045 163.322362,44.3660313 C163.537335,44.5766639 163.601325,44.7966391 163.515586,45.0255323 C163.429848,45.2544254 163.2705,45.4140986 163.037961,45.5049764 C162.805423,45.5958542 162.574557,45.547018 162.345364,45.3580431 C161.844736,44.8853936 161.533151,44.3426748 161.411862,43.7286127 C161.289738,43.1141259 161.284301,42.478406 161.395551,41.8210282 C161.506384,41.1632259 161.658621,40.5364238 161.851846,39.9406222 C162.359584,38.3128904 162.917928,36.7034191 163.526042,35.1117837 C163.769455,34.4510087 164.012868,33.7821651 164.256699,33.1065268" id="Fill-48" fill="#231916"></path>
                <path d="M165.861971,38.3693044 C165.809619,38.451069 165.753778,38.5328337 165.693574,38.6150333 C165.194053,39.3296041 164.714165,40.1181111 164.254781,40.981424 C163.795833,41.8447369 163.577702,42.6784754 163.599515,43.4822045 C163.607368,43.5787564 163.633544,43.6866161 163.678043,43.8057838 C163.722978,43.7461999 163.763986,43.6866161 163.801068,43.6270323 C163.921041,43.4708966 164.017891,43.3221545 164.092492,43.1808061 C164.80927,41.6477189 165.39866,40.04374 165.861971,38.3693044 M163.376149,45.6028664 C162.883173,45.4763051 162.552922,45.1992621 162.384962,44.7713025 C162.217001,44.3433428 162.149816,43.8766754 162.182972,43.3704305 C162.217001,42.8641855 162.286366,42.4288323 162.390633,42.0643707 C162.748804,40.8883515 163.258358,39.7645225 163.918859,38.6933186 C164.579796,37.6212448 165.275634,36.5983169 166.007246,35.6232299 C166.163864,35.4149041 166.320918,35.2100575 166.477537,35.0091252 C166.544721,34.919967 166.612342,34.8268945 166.67909,34.7299077 C166.65684,34.5515911 166.716608,34.3728397 166.858393,34.1940883 C166.873226,34.1719074 166.888495,34.1536409 166.903328,34.1384187 C166.910745,34.1236315 166.922088,34.1123236 166.936921,34.10493 C166.95917,33.993156 166.985346,33.8779026 167.015448,33.758735 C167.164649,33.0889607 167.321267,32.4265801 167.485738,31.772028 C168.642705,26.8974631 169.739905,22.0041968 170.777772,17.092229 C170.792605,17.0252515 170.807438,16.9582741 170.822271,16.8912967 C170.994158,16.0653868 171.161683,15.227734 171.326154,14.3796432 C171.527707,13.2932172 171.749764,12.2063562 171.992762,11.1199302 C172.234888,10.0335042 172.531546,8.96925898 172.882737,7.92719462 C173.001837,7.64449769 173.190738,7.48444774 173.448569,7.44704476 C173.705527,7.41007671 173.929766,7.47140019 174.120413,7.63145014 C174.310187,7.7915001 174.360793,8.02026715 174.270923,8.3177513 C173.778383,9.79908319 173.360008,11.3191228 173.017106,12.8783051 C172.673767,14.4374874 172.360531,16.0018887 172.076525,17.5723788 C171.82262,18.956289 171.550392,20.3258469 171.258969,21.6801826 C171.251553,21.7323728 171.24021,21.784563 171.225377,21.8367532 C170.501618,25.215199 169.739905,28.5832066 168.941545,31.9394715 C169.702822,31.0613714 170.489839,30.2089314 171.303904,29.3830215 C171.430857,29.2490666 171.572642,29.0998896 171.72926,28.9363603 C172.184718,28.4301154 172.705615,27.9334386 173.291515,27.4458952 C173.877415,26.9587866 174.476403,26.7000102 175.088478,26.6704358 C175.432253,26.7000102 175.663472,26.8787616 175.783008,27.2062552 C175.924357,27.6303005 175.889019,28.0452127 175.67656,28.4505566 C175.4641,28.8563354 175.172677,29.2342794 174.803163,29.5839538 C174.433649,29.9336281 174.081149,30.2389408 173.744791,30.499022 C173.655357,30.5664343 173.57334,30.6294975 173.498739,30.6890813 C172.833876,31.2249007 172.155052,31.7459329 171.460522,32.2517429 C170.975399,32.6092458 170.489839,32.9737074 170.004716,33.3459975 C170.587126,33.4277621 171.109331,33.5469298 171.572642,33.7030654 C172.535909,34.0231653 173.345611,34.5089691 174.002622,35.1600419 C174.659196,35.8111147 175.218921,36.5796154 175.682231,37.4651092 C176.144669,38.3953995 176.577877,39.4557304 176.980983,40.6465369 C177.36184,41.7403565 177.791122,42.808516 178.268829,43.8505803 C178.746536,44.8922098 179.355122,45.7777035 180.09415,46.5070616 C180.833178,47.2364197 181.773759,47.6756872 182.915893,47.8244293 C183.222149,47.8766195 183.427192,48.0253616 183.531895,48.2710904 C183.636162,48.5168193 183.638343,48.7490657 183.537567,48.9686995 C183.436354,49.1883332 183.229566,49.2870597 182.915893,49.2644439 C181.662076,49.1083083 180.618537,48.704704 179.786149,48.0536313 C178.953761,47.4021236 178.259231,46.5949151 177.703433,45.6311361 C177.147199,44.6669221 176.663821,43.6383402 176.253298,42.5445205 C176.118929,42.1944113 175.984561,41.8447369 175.850192,41.4950626 C175.566185,40.7135143 175.258184,39.9432739 174.926189,39.1843414 C174.594193,38.4249739 174.192832,37.7030095 173.722978,37.0188829 C173.043281,36.0290088 172.12844,35.3666281 170.978889,35.031741 C170.635551,34.919967 170.219357,34.8286341 169.730743,34.7581774 C169.241693,34.6872857 168.795833,34.7190347 168.392727,34.8529896 C168.325107,34.9421478 168.253996,35.031741 168.179395,35.1208993 C168.164562,35.1509086 168.145803,35.1765688 168.12399,35.1987496 C167.854816,36.240814 167.571246,37.2828784 167.272406,38.3245078 C167.227907,38.5032593 167.164649,38.7524675 167.082196,39.0725674 C166.95568,39.6305676 166.783793,40.2929483 166.56697,41.0597093 C166.350584,41.8260354 166.091008,42.574095 165.789115,43.3034531 C165.486785,44.0328111 165.133849,44.6190811 164.730743,45.0618279 C164.327637,45.5045748 163.876106,45.6850659 163.376149,45.6028664" id="Fill-50" fill="#231916"></path>
                <g id="Group-54" transform="translate(177.087379, 26.028169)">
                    <mask id="mask-4" fill="white">
                        <use xlink:href="#path-3"></use>
                    </mask>
                    <g id="Clip-53"></g>
                    <path d="M6.07895465,1.58927714 C5.41095694,1.65534865 4.77103004,1.9655415 4.15917396,2.51985569 C3.54775648,3.07416988 3.02406031,3.70013304 2.58896265,4.39731614 C3.12888726,4.44880043 3.67539098,4.34797703 4.22671936,4.0944169 C4.77848635,3.84128581 5.24604089,3.56799003 5.62850577,3.27410054 C5.83859829,3.12007671 6.06930531,2.90727497 6.32106545,2.63526631 C6.57238698,2.36411571 6.71098664,2.11956533 6.73730303,1.90290228 C6.76361942,1.68666826 6.54431616,1.58198353 6.07895465,1.58927714 M4.29996665,10.7955263 C2.9490586,10.7294548 1.88894666,10.2467896 1.11963084,9.34753066 C0.35031502,8.44827172 0.082326442,7.3452208 0.314349286,6.0383779 C0.584969503,4.84179718 1.16085985,3.72415905 2.04289754,2.68503445 C2.92493524,1.64633889 3.94337955,0.888232719 5.09954632,0.410715926 C5.73728018,0.183756013 6.34167995,0.148575081 6.91186842,0.306460238 C7.48205688,0.464345395 7.88557487,0.772822102 8.12198378,1.23146132 C8.35839269,1.69010054 8.28909286,2.26500845 7.91408429,2.95489794 C7.55354974,3.5568351 7.04125734,4.09656208 6.37720708,4.57364984 C5.71271822,5.05073759 4.98857887,5.39782752 4.20435043,5.61406154 C3.42012199,5.83072459 2.66396436,5.85088927 1.93587756,5.67455558 C1.92842125,5.68957183 1.92096493,5.70802037 1.91350862,5.72990119 C1.90561371,5.75950466 1.89464854,5.78867909 1.87973592,5.81785352 C1.55648292,6.8604104 1.61876505,7.65712979 2.06570508,8.20758267 C2.5117679,8.75803554 3.15739669,9.09225439 4.00171422,9.20981018 C4.84603175,9.32736598 5.69210371,9.26129447 6.5403687,9.01159567 C7.81627504,8.63704745 9.06016311,8.10289794 10.2724715,7.40914713 C11.4843413,6.71539632 12.555857,5.90237356 13.48658,4.97007887 C13.7190415,4.76457075 13.9536959,4.70579285 14.1901049,4.79374518 C14.4265138,4.88212654 14.5914298,5.04344399 14.6852916,5.27855558 C14.7791534,5.51323814 14.7247662,5.74491744 14.52213,5.97230639 C13.6962339,6.80935515 12.7190186,7.5983519 11.5891682,8.33972568 C10.4597565,9.08152849 9.26674677,9.67960433 8.00926191,10.1348113 C6.75221565,10.5900182 5.51578389,10.8105426 4.29996665,10.7955263" id="Fill-52" fill="#231916" mask="url(#mask-4)"></path>
                </g>
            </g>
            <path d="M42.9910252,24.3380282 C42.9910252,24.3380282 31.2000948,16.3165676 36.5451574,14.0525871 C40.5678051,12.3479171 41.540332,16.2578312 41.540332,16.2578312 C41.540332,16.2578312 43.9060188,8.38540328 46.3552354,11.5795226 C49.7889118,16.0570756 42.9910252,24.3380282 42.9910252,24.3380282" id="Fill-55" fill="#FFF000"></path>
        </g>
    </g>
</svg>