<?xml version="1.0" encoding="UTF-8"?>
<svg width="120px" height="120px" viewBox="0 0 120 120" version="1.1" xmlns="http://www.w3.org/2000/svg" xmlns:xlink="http://www.w3.org/1999/xlink">
    <!-- Generator: Sketch 55.2 (78181) - https://sketchapp.com -->
    <title>icon_need_1</title>
    <desc>Created with Sketch.</desc>
    <g id="icon_need_1" stroke="none" stroke-width="1" fill="none" fill-rule="evenodd">
        <g id="Group-10" transform="translate(14.000000, 14.000000)">
            <g id="Group-11" transform="translate(13.000000, 12.000000)" stroke="#4A4A4A" stroke-linecap="round" stroke-linejoin="round" stroke-width="3">
                <path d="M47.547619,23.2419421 L29.0860669,38.3530532" id="Path-5"></path>
                <path d="M55,56 L29,30" id="Path-6"></path>
                <path d="M33.5,67.3365054 L33.5,68.9699331" id="Path-7"></path>
                <path d="M33.5,0.336505358 L33.5,1.96993309" id="Path-7"></path>
                <path d="M1,34.5 L0,34.5" id="Path-7"></path>
                <path d="M9,59 L10,58" id="Path-4"></path>
                <path d="M67,34.5 L66,34.5" id="Path-7" transform="translate(66.500000, 34.500000) scale(-1, 1) translate(-66.500000, -34.500000) "></path>
                <path d="M57,11 L58,10" id="Path-4" transform="translate(57.500000, 10.500000) scale(-1, -1) translate(-57.500000, -10.500000) "></path>
                <path d="M9,11 L10,10" id="Path-4" transform="translate(9.500000, 10.500000) scale(1, -1) translate(-9.500000, -10.500000) "></path>
            </g>
            <path d="M75.2677515,80.8388193 C67.3562835,87.4920965 57.1461897,91.5 46,91.5 C20.8710439,91.5 0.5,71.1289561 0.5,46 C0.5,20.8710439 20.8710439,0.5 46,0.5 C71.1289561,0.5 91.5,20.8710439 91.5,46 C91.5,56.3794221 88.0245525,65.9471099 82.1738944,73.6028265 L80.0322416,71.4611738 C85.3499742,64.364723 88.5,55.5502255 88.5,46 C88.5,22.5278981 69.4721019,3.5 46,3.5 C22.5278981,3.5 3.5,22.5278981 3.5,46 C3.5,69.4721019 22.5278981,88.5 46,88.5 C56.3175532,88.5 65.7764025,84.8234516 73.1379174,78.7089853 L75.2677515,80.8388193 Z" id="Combined-Shape" fill="#4A4A4A" fill-rule="nonzero"></path>
        </g>
    </g>
</svg>