<?xml version="1.0" encoding="UTF-8"?>
<svg width="192px" height="60px" viewBox="0 0 192 60" version="1.1" xmlns="http://www.w3.org/2000/svg" xmlns:xlink="http://www.w3.org/1999/xlink">
    <!-- Generator: Sketch 55.2 (78181) - https://sketchapp.com -->
    <title>Group 40</title>
    <desc>Created with Sketch.</desc>
    <defs>
        <polygon id="path-1" points="0 0.0676758327 12.0857822 0.0676758327 12.0857822 17.4116084 0 17.4116084"></polygon>
        <polygon id="path-3" points="0.233262677 0.208887584 14.7074666 0.208887584 14.7074666 10.7628433 0.233262677 10.7628433"></polygon>
    </defs>
    <g id="Page-1" stroke="none" stroke-width="1" fill="none" fill-rule="evenodd">
        <g id="mainpage-改改改" transform="translate(-43.000000, -16.000000)">
            <g id="Group-40" transform="translate(43.000000, 16.000000)">
                <g id="Group-45">
                    <g id="Group-31" transform="translate(0.000000, 27.801047)">
                        <mask id="mask-2" fill="white">
                            <use xlink:href="#path-1"></use>
                        </mask>
                        <g id="Clip-30"></g>
                        <path d="M2.63928436,5.34998717 C2.5320693,5.51549607 2.37854734,5.80029463 2.17871849,6.2030623 C1.97888965,6.60627016 1.80033694,7.03897029 1.64347755,7.50248325 C1.48620098,7.96555602 1.40944001,8.37448626 1.41319462,8.72839359 C1.41653205,9.08230092 1.56838529,9.29711034 1.86833715,9.37238168 C2.16077979,9.39483102 2.4999465,9.26893861 2.8854201,8.99382408 C3.2708937,8.71870955 3.6063058,8.44975759 3.89207356,8.18564764 C3.98468735,8.10289319 4.06353422,8.03554516 4.12736265,7.98228298 C4.99843286,7.25950209 5.81944158,6.47993757 6.59038878,5.6435894 C7.16859918,5.04141872 7.73596293,4.41591832 8.29289719,3.76840877 C8.2002834,3.76092565 8.103915,3.71910825 8.00379199,3.64383691 C7.30418243,3.1239805 6.62626619,2.88496099 5.96920892,2.9267784 C5.31256882,2.96815563 4.7005669,3.20893586 4.13320315,3.64955929 C3.56542223,4.09018272 3.06731024,4.65713874 2.63928436,5.34998717 M9.5135636,4.51407919 C8.77849381,5.44066492 7.97876123,6.36681047 7.11520024,7.2933962 C6.25122207,8.21998194 5.3893298,9.0145127 4.52910624,9.67742866 C3.66888268,10.3399045 2.87832805,10.7413516 2.15744235,10.8804495 C1.43613948,11.0199876 0.854591639,10.7695233 0.411964483,10.1290567 C0.0335829275,9.48903024 -0.0840616135,8.76580916 0.0586136809,7.95983364 C0.201288975,7.1542983 0.470786753,6.37253285 0.867107016,5.61541767 C1.26342728,4.85830249 1.65766164,4.23544319 2.05022729,3.74551924 C2.93506443,2.60808573 3.96716582,1.88134319 5.14486277,1.56485144 C6.3229769,1.24879987 7.50734871,1.5239144 8.69964693,2.38975484 C8.88529169,2.53325458 8.9854147,2.7062466 8.99959879,2.90961126 C9.6420548,2.11111885 10.2419585,1.27873233 10.7984756,0.412451702 C10.9557522,0.186637696 11.1447344,0.0717498691 11.3662565,0.0676758327 C11.5873615,0.0642667539 11.7730063,0.143499738 11.9227736,0.305487173 C12.0729581,0.467474607 12.119265,0.68756623 12.0621115,0.966202225 C11.3983793,3.3841288 10.6307696,5.76067814 9.75969934,8.09541008 C9.50980898,8.80366492 9.26367324,9.51191976 9.02087493,10.2197344 C8.95704651,10.4002096 8.88529169,10.6000527 8.80686199,10.8183836 C8.58533983,11.3835789 8.37841893,12.0007158 8.18568213,12.6711149 C7.99294533,13.341514 7.90742359,13.9894637 7.92911691,14.614524 C7.95039305,15.2395842 8.16774342,15.7634022 8.58200239,16.1850978 C8.79601533,16.4034287 8.86067811,16.6314436 8.77473919,16.8687024 C8.68921745,17.1059611 8.53027217,17.27147 8.29832052,17.3656692 C8.06636887,17.4598685 7.83608594,17.4092474 7.60788891,17.2133658 C7.10769102,16.7234419 6.79730967,16.1608877 6.67591052,15.5243827 C6.55451137,14.8874376 6.54950522,14.2284832 6.66005771,13.5470796 C6.7706102,12.8652357 6.92246344,12.2155253 7.11520024,11.5979482 C7.62165582,9.91072579 8.17859008,8.24243128 8.78558585,6.59262448 C9.02796698,5.90769935 9.27076529,5.21441073 9.5135636,4.51407919" id="Fill-29" fill="#FFFFFF" mask="url(#mask-2)"></path>
                    </g>
                    <path d="M25.0832248,30.3950819 C24.8818144,30.5117503 24.6991499,30.5411302 24.5347956,30.4827961 C24.1393859,31.8743001 23.7439763,33.2658041 23.3485667,34.6573082 C22.7591579,36.7339193 22.1741086,38.8105304 21.592111,40.8871415 C22.2486567,40.3404184 22.7334367,39.9614592 23.0468871,39.750264 C25.2249096,38.1765189 27.5633629,36.8505876 30.0626829,35.7720442 C30.3983669,35.1967927 30.696559,34.6028062 30.9581309,33.9909361 C30.9651062,33.9687947 30.976441,33.9436727 30.9912634,33.9142927 C31.1778514,33.4919022 31.3683629,32.9796687 31.5619262,32.3788693 C31.7559254,31.7776442 31.843552,31.1947284 31.825242,30.6301218 C31.806496,30.0655152 31.5619262,29.6265187 31.0919686,29.3131322 C30.5622854,29.0218872 29.9170745,28.9141606 29.1563361,28.990804 C28.3955976,29.0670216 27.645758,29.2437273 26.9072532,29.520921 C26.1687484,29.797689 25.5605936,30.088934 25.0832248,30.3950819 M27.645758,39.0178934 C27.906894,38.7411255 28.1566953,38.4532869 28.3955976,38.1548033 C27.2839168,38.723242 26.1983932,39.345757 25.1390268,40.0236255 C23.9602092,40.7521639 22.8825327,41.5973706 21.9051255,42.5592456 C21.7337958,42.7487252 21.573365,42.9454434 21.424269,43.1494 C21.3274874,43.287784 21.2228586,43.426168 21.1108186,43.5645519 L21.0994839,43.5756227 L21.088585,43.5862676 C21.9090491,43.4623607 22.7260255,43.1421615 23.5390783,42.6248184 C24.3521311,42.1074752 25.1128696,41.5173208 25.8217296,40.8543552 C26.5301536,40.1909637 27.1383084,39.5790937 27.645758,39.0178934 M20.9987786,43.7067681 C20.9839562,43.7284837 20.9691338,43.7506252 20.9543114,43.7723408 C20.9691338,43.7574379 20.9782888,43.746793 20.9822124,43.7395544 C20.986136,43.7323159 20.9918034,43.7212452 20.9987786,43.7067681 M17.2277829,58.7995624 C17.1536709,59.0912332 16.9949839,59.2568682 16.7525939,59.2968931 C16.5102039,59.336918 16.2861239,59.2768806 16.0812259,59.116781 C15.8758919,58.9566814 15.7921888,58.7271769 15.8292449,58.4282675 C16.6348865,54.3550951 17.5691343,50.3134316 18.6324243,46.3024255 C19.6952784,42.2914194 20.8012918,38.2897809 21.9500287,34.2966582 C22.6959447,31.6814141 23.4305259,29.0619121 24.1546443,26.4385778 C24.2514259,26.1545713 24.4249353,25.9944717 24.6747366,25.9578532 C24.9245378,25.9216605 25.1481818,25.9816978 25.3461046,26.1379653 C25.5435914,26.2950843 25.612908,26.5224598 25.5531824,26.8213692 C25.3665944,27.4843348 25.18393,28.1434683 25.0047532,28.7991954 C25.7881612,28.3912821 26.6927642,28.0634185 27.7185622,27.8156048 C28.7439243,27.5682168 29.7230753,27.5192502 30.6555794,27.6682791 C31.5880834,27.8177337 32.3078422,28.2784459 32.8152918,29.0508414 C33.1361534,29.6120416 33.2852494,30.2200794 33.2630158,30.8758065 C33.2403462,31.5315337 33.1248186,32.1859834 32.915997,32.8378783 C32.7071754,33.4901991 32.4835314,34.085463 32.244629,34.6245218 C32.2223954,34.6900945 32.1958022,34.7522608 32.1665934,34.810595 C32.1439238,34.8540263 32.1251778,34.8978834 32.1103554,34.9417404 C34.4226515,34.0599152 36.7580531,33.3168997 39.1152524,32.7118425 C39.4208556,32.6466955 39.6558345,32.7105651 39.8201888,32.903451 C39.9841073,33.096337 40.0455767,33.3147708 40.005033,33.5591781 C39.9636175,33.8031597 39.7975193,33.9726269 39.5067384,34.0675795 C36.6198559,34.8033565 33.8035979,35.7503286 31.0588361,36.9089218 C30.2082913,38.2638073 29.2121381,39.5062824 28.0708125,40.6354956 C27.3323076,41.3712725 26.5397446,42.0619149 25.6931234,42.7069971 C24.8465021,43.3516535 23.9532339,43.9034862 23.0128827,44.3624952 C22.6697875,44.5443104 22.2674026,44.7159066 21.8044203,44.8760062 C21.3418739,45.0365316 20.8980734,45.0799628 20.473019,45.0071516 C19.2349117,49.5682872 18.1533117,54.1660413 17.2277829,58.7995624" id="Fill-32" fill="#FFFFFF"></path>
                    <path d="M40.4174777,38.2398142 C40.3969761,38.5405335 40.2783887,38.7418697 40.0617153,38.8446797 C39.8450419,38.9470614 39.6315845,38.9470614 39.421745,38.8446797 C39.2119055,38.7418697 39.1001519,38.5405335 39.0864842,38.2398142 C39.1278893,36.6124176 39.3063734,35.0072964 39.6231427,33.4240223 C39.4165191,33.2698073 39.3582303,33.0354862 39.4474724,32.7202022 C39.9085566,31.4594945 40.3419033,30.1910761 40.7479146,28.9158037 C40.9883055,28.0877548 41.2359322,27.2627046 41.4903927,26.441938 C41.5937045,26.1557835 41.7621389,25.9951429 41.9960979,25.9583026 C42.2300569,25.9214624 42.4362785,25.9801498 42.6151647,26.1339364 C42.7940509,26.2881514 42.8491237,26.5151902 42.7803832,26.8159094 C42.5327565,27.6880809 42.2710601,28.5529701 41.9960979,29.4105769 C41.5695851,30.8473467 41.2085968,32.3008231 40.9127311,33.7701494 C40.6168654,35.239904 40.451647,36.7297923 40.4174777,38.2398142" id="Fill-34" fill="#FFFFFF"></path>
                    <path d="M49.3682916,28.2028692 C48.7250285,28.2664881 48.1087967,28.5651662 47.5200188,29.0989036 C46.9308184,29.632641 46.426936,30.2353676 46.0075267,30.9066705 C46.5278814,30.9562436 47.0537269,30.8591629 47.5850631,30.6150152 C48.1163993,30.3712806 48.5662189,30.1081299 48.9349443,29.82515 C49.1368352,29.6768437 49.359422,29.4719414 49.6014376,29.21003 C49.8434532,28.9489448 49.9769208,28.7134725 50.0022627,28.5048522 C50.0280271,28.2966451 49.8164218,28.1958463 49.3682916,28.2028692 M47.6555982,37.0673715 C46.3547115,37.0037526 45.3334309,36.5390045 44.5926012,35.6731271 C43.8521939,34.8072497 43.593706,33.7451454 43.8175599,32.486814 C44.0781596,31.3346518 44.632726,30.2585018 45.4816813,29.2579507 C46.331059,28.2578128 47.3122148,27.5278484 48.4251487,27.0680576 C49.0392687,26.8495227 49.6212888,26.8156477 50.1703643,26.967672 C50.7198623,27.1196963 51.1084388,27.416722 51.336094,27.8583359 C51.5637492,28.2999499 51.4970154,28.8535166 51.1354703,29.5177965 C50.7882855,30.0973891 50.2953846,30.6170807 49.6555004,31.0764584 C49.0160385,31.5358361 48.3182902,31.8700417 47.5635224,32.0782488 C46.80791,32.2868691 46.0797513,32.3062852 45.3790464,32.1364972 C45.3714438,32.1509561 45.3642636,32.1687198 45.3570834,32.1897884 C45.3499031,32.2182929 45.3389216,32.2463844 45.3245612,32.2744758 C45.0136999,33.2783317 45.0736759,34.0454759 45.5036443,34.5754954 C45.9336127,35.1055148 46.5549129,35.427327 47.3683894,35.540519 C48.1810213,35.653711 48.9961873,35.5900921 49.8126205,35.3496624 C51.0412827,34.9890179 52.2391122,34.4746966 53.4065313,33.8066987 C54.5735281,33.1387007 55.6053678,32.3558584 56.5016281,31.4581716 C56.725482,31.2602921 56.9518701,31.2036961 57.1795253,31.2883836 C57.4071804,31.3734841 57.56599,31.5288133 57.6563763,31.7551972 C57.7463402,31.9811681 57.6943892,32.2042472 57.4988338,32.4231952 C56.7039413,33.2291717 55.7629103,33.98888 54.6748959,34.7027331 C53.5873039,35.4169993 52.4380465,35.9928738 51.227546,36.4311829 C50.0170455,36.869492 48.8263963,37.0818303 47.6555982,37.0673715" id="Fill-36" fill="#FFFFFF"></path>
                    <path d="M60.4513162,38.8947138 C59.3198421,38.9993346 58.3471196,38.7970969 57.5331488,38.2880008 C56.718757,37.7784669 56.1928131,36.9248663 55.9548961,35.7263235 C55.738876,34.4678098 55.8218311,33.2167377 56.2037615,31.9735451 C56.5856919,30.7303524 57.2122768,29.6495628 58.0843582,28.7320516 C58.9560186,27.8145404 60.0150649,27.2170199 61.2619182,26.9399281 C62.0329376,26.8051029 62.6633123,26.8782062 63.1534633,27.1588 C63.6436144,27.4398316 63.9657497,27.8351143 64.1207116,28.3442105 C64.2756734,28.8537444 64.2360908,29.3759728 64.0019636,29.9117714 C63.7674154,30.4475699 63.3117939,30.8949441 62.634678,31.2543319 C62.3538097,31.3742737 62.1121029,31.3576394 61.9103998,31.2039913 C61.7086968,31.0503432 61.595002,30.8498565 61.5701575,30.6025312 C61.544892,30.3556437 61.6619556,30.1573457 61.9213482,30.0071995 C62.2312719,29.8426078 62.4653991,29.6272378 62.6237296,29.3610895 C62.7824813,29.095379 62.8144843,28.8554953 62.7210019,28.6423141 C62.6270984,28.428695 62.3538097,28.3179458 61.8994515,28.3105042 C61.5899489,28.3179458 61.2707611,28.3910491 60.9431516,28.5298139 C60.6151209,28.6685787 60.3216198,28.8239778 60.0622272,28.9960111 C58.7581054,29.8649328 57.8826552,31.0674152 57.4358766,32.6025831 C57.2918631,33.1270003 57.2122768,33.7131393 57.1979596,34.3610003 C57.1836425,35.009299 57.2859679,35.6063817 57.5061989,36.1531238 C57.7255879,36.6998659 58.120151,37.089458 58.6894674,37.3214622 C59.6045002,37.6213168 60.5287971,37.6344491 61.4619369,37.3608592 C62.3950767,37.087707 63.3012666,36.6438347 64.1800855,36.02968 C65.0593256,35.4155253 65.8770862,34.7466527 66.6337884,34.0239375 C67.3904907,33.3012223 68.0461309,32.640229 68.6011301,32.0409577 C68.8238878,31.8312783 69.0508563,31.7730584 69.2816147,31.8667356 C69.5123731,31.9604128 69.6711248,32.1250045 69.7574487,32.3609484 C69.8437725,32.5968924 69.7898727,32.8350251 69.5953283,33.074471 C68.7809364,33.9433926 67.8983276,34.8009329 66.9470809,35.6475296 C65.9958341,36.4941263 64.9780548,37.2168414 63.893743,37.8161128 C62.8094312,38.4153842 61.6619556,38.774772 60.4513162,38.8947138" id="Fill-38" fill="#FFFFFF"></path>
                    <path d="M74.4953172,28.2028692 C73.852054,28.2664881 73.2358223,28.5651662 72.6470443,29.0989036 C72.057844,29.632641 71.5539615,30.2353676 71.1345523,30.9066705 C71.654907,30.9562436 72.1807524,30.8591629 72.7120886,30.6150152 C73.2434248,30.3712806 73.6932445,30.1081299 74.0619698,29.82515 C74.2638607,29.6768437 74.4864475,29.4719414 74.7284631,29.21003 C74.9704787,28.9489448 75.1039463,28.7134725 75.1292883,28.5048522 C75.1550526,28.2966451 74.9434473,28.1958463 74.4953172,28.2028692 M72.7826237,37.0673715 C71.481737,37.0037526 70.4604564,36.5390045 69.7196267,35.6731271 C68.9792194,34.8072497 68.7207316,33.7451454 68.9445854,32.486814 C69.2051852,31.3346518 69.7597515,30.2585018 70.6087068,29.2579507 C71.4580845,28.2578128 72.4392403,27.5278484 73.5521743,27.0680576 C74.1662942,26.8495227 74.7483143,26.8156477 75.2973899,26.967672 C75.8468878,27.1196963 76.2354644,27.416722 76.4631195,27.8583359 C76.6907747,28.2999499 76.6240409,28.8535166 76.2624958,29.5177965 C75.9153111,30.0973891 75.4224101,30.6170807 74.7825259,31.0764584 C74.1430641,31.5358361 73.4453157,31.8700417 72.690548,32.0782488 C71.9349355,32.2868691 71.2067768,32.3062852 70.5060719,32.1364972 C70.4984693,32.1509561 70.4912891,32.1687198 70.4841089,32.1897884 C70.4769287,32.2182929 70.4659472,32.2463844 70.4515867,32.2744758 C70.1407255,33.2783317 70.2007014,34.0454759 70.6306698,34.5754954 C71.0606382,35.1055148 71.6819384,35.427327 72.495415,35.540519 C73.3080468,35.653711 74.1232129,35.5900921 74.939646,35.3496624 C76.1683082,34.9890179 77.3661377,34.4746966 78.5335568,33.8066987 C79.7005536,33.1387007 80.7323933,32.3558584 81.6286536,31.4581716 C81.8525075,31.2602921 82.0788956,31.2036961 82.3065508,31.2883836 C82.534206,31.3734841 82.6930155,31.5288133 82.7834018,31.7551972 C82.8733657,31.9811681 82.8214147,32.2042472 82.6258593,32.4231952 C81.8309669,33.2291717 80.8899358,33.98888 79.8019214,34.7027331 C78.7143294,35.4169993 77.565072,35.9928738 76.3545715,36.4311829 C75.1440711,36.869492 73.9534218,37.0818303 72.7826237,37.0673715" id="Fill-40" fill="#FFFFFF"></path>
                    <path d="M96.1104831,28.1283859 C95.6335525,28.8328005 95.2537823,29.621272 94.9720174,30.4938004 C94.6902524,31.3663287 94.6450517,32.1963909 94.8364153,32.9826734 C95.0277789,33.7693937 95.5934211,34.3840599 96.5333418,34.8257966 C97.5742247,35.2377631 98.6801628,35.3537791 99.8515786,35.1742826 C101.022149,34.9943482 102.139493,34.702338 103.202343,34.2973762 C103.512411,32.6643953 103.639564,31.0165294 103.581691,29.3533405 C103.574087,28.9260511 103.545361,28.4392214 103.495091,27.8924136 C103.443977,27.3456058 103.340902,26.8176233 103.185868,26.3080282 C103.029567,25.7988708 102.786243,25.3904067 102.453786,25.0830736 C101.954466,24.656222 101.39854,24.4933617 100.783895,24.5944927 C100.169251,24.6956237 99.5554508,24.9521724 98.940806,25.3641389 C98.3261612,25.7761054 97.7677005,26.2388563 97.2654238,26.7519538 C96.7627247,27.2650513 96.3778852,27.723862 96.1104831,28.1283859 M93.6383861,33.8591419 C93.2983249,34.6533048 92.9696695,35.5936916 92.651575,36.6798647 C92.3339029,37.7660378 92.0931143,38.8745385 91.9304763,40.0058046 C91.7678383,41.1370707 91.7517858,42.1672058 91.8818961,43.09621 C92.0120065,44.0252141 92.3609389,44.7274397 92.9282707,45.2033245 C93.4956026,45.6787714 94.3468117,45.8079214 95.4814755,45.5907744 C96.8843863,45.2685561 98.0731219,44.5943496 99.0489497,43.5681546 C100.024777,42.5415218 100.821915,41.3467752 101.439939,39.983477 C102.057963,38.6201787 102.5256,37.2717655 102.844117,35.9382374 C102.504056,36.0433086 102.164417,36.1365593 101.825201,36.218865 C100.88528,36.46622 99.8946671,36.6067527 98.8542066,36.640463 C97.8129012,36.6741733 96.8370734,36.5021193 95.9258784,36.1238632 C95.0155283,35.7451692 94.2889379,35.065709 93.7469522,34.0841693 C93.7178041,34.0390763 93.6962599,33.9904809 93.6814746,33.9379453 C93.6671118,33.9081751 93.6527489,33.8819074 93.6383861,33.8591419 M93.1504722,47.0293736 C92.0952264,46.7071554 91.3487816,46.0964293 90.9111376,45.1976331 C90.4739161,44.2988369 90.2605858,43.2406828 90.2715691,42.0231708 C90.2825525,40.8056588 90.4342071,39.5548742 90.7269554,38.2699415 C91.0197037,36.9850088 91.3703258,35.7959536 91.7788217,34.702338 C92.1873176,33.6087223 92.5687775,32.7357562 92.9227791,32.0838772 C93.0165599,31.9267083 93.1285055,31.8216371 93.2590383,31.7691015 C93.3308525,30.6680434 93.6438778,29.6024467 94.1968468,28.5723116 C94.7498159,27.5426142 95.3695299,26.6565142 96.0564112,25.9148869 C96.5988194,25.3229861 97.2890802,24.7612932 98.1276162,24.2293704 C98.9661522,23.6974477 99.8410177,23.3581554 100.75179,23.2123692 C101.662563,23.0661452 102.490115,23.2776009 103.234448,23.8471741 C103.697016,24.2516981 104.049328,24.7499105 104.291384,25.3418113 C104.533862,25.9332744 104.701992,26.5571344 104.796195,27.2125157 C104.889553,27.8683348 104.94785,28.4878169 104.969394,29.0722752 C105.048812,30.6159456 104.969394,32.1587404 104.73114,33.701973 C105.763996,33.2676789 106.773197,32.7563326 107.755783,32.1683719 C108.739215,31.5799734 109.638582,30.8965731 110.455996,30.1172954 C110.687069,29.9229137 110.919831,29.8721293 111.155128,29.9658178 C111.390003,30.0595062 111.550951,30.2223665 111.63755,30.4543987 C111.72415,30.6868686 111.663319,30.9153984 111.45379,31.139988 C110.470359,32.0764346 109.377094,32.9025566 108.17315,33.6179161 C106.96963,34.3332755 105.717951,34.9343701 104.416847,35.4211998 C104.26477,36.1181718 104.083545,36.8033233 103.873594,37.4775299 C103.541137,38.608796 103.053645,39.8000402 102.410275,41.0512626 C101.766482,42.3020472 100.988355,43.4517007 100.073358,44.5006611 C99.1592055,45.5496215 98.1200123,46.3249591 96.9562005,46.8266738 C95.7923886,47.3288264 94.5238125,47.3962471 93.1504722,47.0293736" id="Fill-42" fill="#FFFFFF"></path>
                    <path d="M114.945506,16.7244025 C114.7704,16.8280988 114.692007,16.9093276 114.710327,16.9680889 C114.728221,17.0277143 114.799371,17.0717852 114.923352,17.1015979 C114.923352,17.0052467 114.925056,16.9205614 114.92889,16.8462457 C114.932725,16.7723621 114.937837,16.7317477 114.945506,16.7244025 M114.759322,18.5766781 C114.358409,19.4637137 114.013735,20.3822903 113.726151,21.3324078 C113.438141,22.2825254 113.17399,23.2343712 112.933272,24.1879453 C112.824203,24.5945213 112.714709,25.0015293 112.605214,25.4081053 C112.415622,26.0955255 112.229864,26.7868343 112.047514,27.4815997 C112.689146,25.8479506 113.250253,24.1879453 113.731264,22.502448 C113.775573,22.3546807 113.81903,22.2064814 113.862913,22.0587141 C114.227186,20.9202149 114.526273,19.7592482 114.759322,18.5766781 M104.020733,50.0610417 C104.006247,50.1941186 103.991762,50.4529273 103.977276,50.8374679 C103.977276,50.933387 103.973441,51.0293061 103.965772,51.1256572 C104.440392,50.120235 104.844714,49.0776549 105.180015,47.998349 C105.515316,46.918611 105.825481,45.8393052 106.109656,44.7599993 C106.204239,44.3974942 106.302657,44.0354212 106.404909,43.6733482 C106.871433,41.9580383 107.323046,40.2388397 107.761026,38.5166166 C107.644288,38.7529578 107.531385,38.9823859 107.42189,39.2040368 C105.774355,42.6566922 104.640636,46.2756939 104.020733,50.0610417 M104.545626,52.9999682 C104.027976,53.6281951 103.544835,53.8610798 103.096631,53.6986222 C102.648426,53.5357326 102.406004,53.0552729 102.369363,52.2568113 C102.377032,50.8966612 102.548304,49.523117 102.88318,48.1370428 C103.218907,46.7509687 103.590849,45.4180389 103.999004,44.1391176 C104.290423,43.1777662 104.65853,42.1001886 105.103326,40.9063847 C105.548122,39.7121488 106.081963,38.5179128 106.705274,37.3241089 C107.329011,36.130305 108.052444,35.0561839 108.876424,34.1026098 L108.876424,34.0801423 L108.876424,34.0693406 C108.642949,33.9215733 108.526637,33.6960338 108.526637,33.3927221 C108.526637,33.0894104 108.686832,32.8643029 109.007222,32.7161036 C109.087745,32.686723 109.167417,32.6495651 109.24794,32.6054942 C110.079164,29.2340675 110.975999,25.8846763 111.93802,22.5577527 C112.040272,22.2177152 112.142097,21.8629873 112.244349,21.4931371 C112.470156,20.6207918 112.738141,19.7462862 113.048306,18.8704843 C113.357618,17.9942504 113.760661,17.2087508 114.256583,16.5135533 C114.643011,16.0110582 115.001745,15.7578664 115.333638,15.7539267 C115.665105,15.7505212 115.924143,15.9224843 116.109901,16.269867 C116.296085,16.6172497 116.363401,17.0678966 116.312275,17.6226719 C116.115439,19.2934789 115.763948,20.9534842 115.256949,22.6022557 C114.750375,24.2505951 114.19438,25.8514071 113.589389,27.4042595 C113.494806,27.6479459 113.395963,27.9140998 113.294137,28.2027212 C113.082816,28.7942223 112.842098,29.4207209 112.572408,30.0826491 C112.302718,30.7441452 111.989146,31.378421 111.632116,31.9841804 C112.681903,31.4963756 113.855244,31.3818776 115.152993,31.6402543 C115.444837,31.7219151 115.608866,31.8843727 115.645506,32.1284911 C115.682147,32.3726095 115.619517,32.5942604 115.459323,32.7938758 C115.299128,32.9934913 115.069487,33.0712635 114.7704,33.0267605 C113.844593,32.8422675 112.99718,32.9342979 112.227734,33.3041482 C111.458713,33.6739984 110.764678,34.2097627 110.144349,34.9118732 C110.108135,35.0302598 110.075329,35.1525351 110.046358,35.2778348 C109.959017,35.6403399 109.867417,36.0028449 109.772834,36.3649179 C109.736193,36.4979949 109.703387,36.6349604 109.674416,36.7753825 C108.843619,40.1463771 107.942949,43.4992248 106.973259,46.8339257 C106.871433,47.1739632 106.769607,47.5252345 106.666929,47.8877396 C106.426637,48.7821204 106.144166,49.6799577 105.819516,50.5821157 C105.495292,51.4842737 105.07052,52.2900805 104.545626,52.9999682" id="Fill-44" fill="#FFFFFF"></path>
                    <path d="M136.616553,42.9663616 C134.860268,43.5665361 133.122449,44.2599664 131.403094,45.0470803 C129.683739,45.8337665 128.055848,46.7543477 126.52028,47.808396 C126.409922,47.8888185 126.278093,48.00603 126.123506,48.1600306 C126.028177,48.2549976 125.928984,48.3465424 125.825925,48.4342371 L126.013577,48.4342371 C126.300423,48.4487816 126.524145,48.4453594 126.686032,48.4235427 C127.861326,48.1891196 129.015148,47.8468961 130.147071,47.3968722 C131.278136,46.9468484 132.37313,46.4506244 133.431194,45.9090557 C135.709211,44.7745849 137.891469,43.4459023 139.977969,41.9234356 C138.839175,42.2305812 137.718417,42.5783658 136.616553,42.9663616 M130.135477,48.8846888 C130.003649,48.9355945 129.867097,48.986928 129.727968,49.0382616 C129.220836,49.2358956 128.665609,49.4318186 128.063577,49.6256026 C127.461116,49.8198144 126.858225,49.9498593 126.255764,50.0157374 C125.653732,50.0816154 125.1028,50.0230096 124.602538,49.83992 C123.956277,49.5541635 123.687896,49.1973955 123.797825,48.7691884 C123.908183,48.3409812 124.186011,47.9256075 124.63045,47.5230672 C125.074888,47.1205268 125.46608,46.8095312 125.804025,46.5896526 C127.383822,45.5060876 129.064531,44.5585563 130.846579,43.7457756 C132.628199,42.9334226 134.426565,42.2160367 136.241678,41.5940455 C138.277078,40.8693873 140.375173,40.2944519 142.535101,39.8700948 C145.011505,37.7470259 147.109599,35.3206615 148.828525,32.5905738 C149.592873,31.3607082 150.274346,29.9627253 150.872943,28.3957696 C151.471969,26.8296694 151.837396,25.248597 151.970083,23.6525523 C152.102342,22.0569354 151.846843,20.6003467 151.204017,19.2823586 C150.561191,17.9647982 149.383322,16.947539 147.671267,16.230153 C145.555137,15.4178 143.213139,15.1068045 140.644842,15.2967385 C138.076544,15.4871003 135.811839,16.160425 133.850298,17.3171403 C133.600381,17.4561686 133.379665,17.469002 133.189007,17.3556404 C132.997491,17.2422789 132.87468,17.0737339 132.819286,16.850433 C132.764321,16.6271322 132.817568,16.4132426 132.979026,16.2083363 C134.331236,14.7149586 135.631917,13.1706752 136.881069,11.5746305 C138.129791,9.97901353 139.291343,8.32821307 140.364008,6.62265685 C140.452466,6.48362856 140.54393,6.34075026 140.639259,6.19444973 C141.028734,5.61609206 141.398026,4.99581202 141.747135,4.33318183 C142.096245,3.67097941 142.314814,3.0066381 142.403273,2.34058567 C142.439773,1.87216729 142.351314,1.60138297 142.138327,1.52780493 C141.924911,1.45465466 141.660824,1.49144368 141.344779,1.63774422 C141.028734,1.78404475 140.738882,1.94916758 140.473937,2.13182935 C139.577759,2.74654826 138.782493,3.50414547 138.088138,4.40462098 C137.393783,5.30509648 136.772428,6.26032775 136.225361,7.27031476 C135.677434,8.28030178 135.176314,9.26504982 134.72071,10.2241311 C134.176649,11.3513297 133.66651,12.4969227 133.189007,13.6609103 C132.689175,16.0179745 132.170878,18.3677664 131.634545,20.7098582 C131.583016,20.9442813 131.531487,21.1782766 131.480387,21.4126997 C131.2966,22.2400249 131.098213,23.0652113 130.884797,23.8886865 C130.67181,24.7121617 130.418458,25.5155313 130.124742,26.2987953 C130.110142,26.3278843 130.098548,26.3574011 130.091678,26.3864901 C129.96672,26.7526692 129.79195,27.1149983 129.568228,27.4734773 C129.343647,27.8323842 129.022448,28.018896 128.603774,28.0334405 C128.265829,28.0043515 128.037383,27.828962 127.920155,27.5064164 C127.795197,27.111576 127.767714,26.6795189 127.837708,26.2111005 C127.907272,25.7426821 127.997448,25.2926583 128.107807,24.8601734 C128.151606,24.6920561 128.188536,24.5350611 128.217735,24.3883328 C128.687939,22.338842 129.265065,20.3184401 129.948255,18.3271273 C130.513787,16.6219989 131.134713,14.9275649 131.811033,13.2438254 C131.97292,12.4969227 132.130943,11.7542978 132.284671,11.0146673 C132.997491,7.63264386 133.73221,4.25832044 134.489259,0.891269272 C134.569988,0.598240425 134.731446,0.431834263 134.974491,0.391623005 C135.216678,0.351411747 135.437395,0.411728634 135.635782,0.572573665 C135.834169,0.733846475 135.907598,0.964419539 135.856069,1.26429285 C135.385865,3.36554496 134.925968,5.46979153 134.478523,7.57788811 C134.76494,7.05086396 135.06252,6.53111207 135.371266,6.01863242 C135.686881,5.49160828 136.085803,4.87132823 136.567171,4.1577923 C137.048109,3.44382858 137.593459,2.75424829 138.203649,2.08776808 C138.813411,1.42171565 139.469548,0.889558155 140.170774,0.490440032 C140.872429,0.0913219094 141.59856,-0.0639619904 142.347879,0.0237327739 C143.222156,0.177305556 143.695795,0.625618303 143.769653,1.36867101 C143.843082,2.11172372 143.637395,3.04128823 143.152592,4.1577923 C142.66736,5.27386859 142.015087,6.47079518 141.196203,7.74814428 C140.37689,9.02549339 139.511201,10.2733257 138.600424,11.4920691 C137.689217,12.7108124 136.84414,13.7999386 136.06562,14.7590199 C137.681488,14.2170234 139.392255,13.8987556 141.196203,13.8037886 C142.999722,13.7083938 144.739689,13.8692388 146.414815,14.2867515 C148.09037,14.7038363 149.534044,15.41395 150.746267,16.4170926 C151.90739,17.4270796 152.693209,18.5850783 153.105012,19.8919441 C153.516386,21.1983822 153.645209,22.5766873 153.491051,24.0260037 C153.336893,25.4753201 152.991219,26.9212142 152.454887,28.3628306 C151.918554,29.8053025 151.279164,31.1682075 150.537144,32.4528288 C149.794696,33.737878 149.045376,34.8667877 148.288757,35.8404134 C147.289092,37.1288848 146.197963,38.3510504 145.01537,39.5077657 C146.609337,39.3319484 148.196864,39.3246761 149.776231,39.4855212 C150.078106,39.5295824 150.279499,39.6724607 150.382987,39.9141561 C150.485615,40.1554236 150.487762,40.3842856 150.388139,40.6003141 C150.288946,40.8159149 150.084976,40.9164431 149.776231,40.9023263 C147.572502,40.68972 145.374785,40.788537 143.185657,41.1987774 C139.254414,44.5585563 134.904498,47.1205268 130.135477,48.8846888" id="Fill-46" fill="#FFFFFF"></path>
                    <path d="M157.126829,33.8080424 C157.019505,33.9672216 156.865827,34.2411282 156.665795,34.6284924 C156.465763,35.0162799 156.287029,35.4324318 156.129592,35.8782181 C155.972573,36.323581 155.895734,36.716872 155.899493,37.0572445 C155.902833,37.3976169 156.054841,37.6042111 156.35468,37.6766038 C156.648256,37.6981946 156.98735,37.5771168 157.373215,37.3125238 C157.759081,37.0479308 158.094834,36.7892647 158.380892,36.5352554 C158.4736,36.4556658 158.55211,36.3908935 158.616421,36.3396682 C159.488377,35.6445295 160.31022,34.8947788 161.081951,34.0904161 C161.66075,33.5112749 162.229108,32.9096963 162.786191,32.2869502 C162.693066,32.2797532 162.597017,32.2395351 162.496792,32.1671425 C161.796471,31.6671675 161.117865,31.4372891 160.46014,31.4775073 C159.802832,31.517302 159.18979,31.7488738 158.62185,32.172646 C158.053909,32.5964181 157.55529,33.1416914 157.126829,33.8080424 M164.008516,33.004103 C163.272282,33.8952523 162.471736,34.7859781 161.607297,35.6771274 C160.74244,36.5682766 159.879671,37.3324212 159.018573,37.9699845 C158.157474,38.6071244 157.366116,38.9932185 156.644497,39.1269968 C155.922461,39.2611983 155.340322,39.0203129 154.897244,38.4043404 C154.518478,37.7887912 154.400714,37.0932291 154.543117,36.3180775 C154.686355,35.5433492 154.956126,34.7914817 155.35285,34.0633217 C155.749155,33.3351618 156.143791,32.7361232 156.537173,32.264936 C157.423328,31.1710027 158.456061,30.4720538 159.634956,30.1676661 C160.81385,29.8637016 162.000261,30.1282946 163.193355,30.9610217 C163.379606,31.0990334 163.479413,31.2654095 163.493611,31.4609966 C164.136721,30.6930419 164.737234,29.8924893 165.294735,29.0593389 C165.451754,28.842161 165.640928,28.7316669 165.862676,28.7277487 C166.084006,28.72447 166.270257,28.8006728 166.420176,28.9564651 C166.569678,29.1122575 166.61645,29.3239319 166.559238,29.5919117 C165.894831,31.9173667 165.126441,34.2030268 164.254485,36.4484689 C164.004758,37.1296371 163.757954,37.8108053 163.515327,38.4915502 C163.451016,38.6651232 163.379606,38.8573236 163.300679,39.0673046 C163.079349,39.6108844 162.872217,40.2044195 162.679285,40.8491797 C162.485934,41.4939399 162.400326,42.1171094 162.422041,42.7182647 C162.442921,43.31942 162.661328,43.823205 163.07559,44.2287732 C163.290239,44.4387542 163.354132,44.6580489 163.268523,44.8862339 C163.182914,45.1144189 163.023808,45.273598 162.79162,45.3641947 C162.559432,45.4547913 162.328915,45.4061062 162.100069,45.217716 C161.600197,44.7465288 161.289083,44.205489 161.167978,43.5933266 C161.046038,42.9807409 161.040609,42.3469878 161.151691,41.6916438 C161.262356,41.0358765 161.414364,40.4110137 161.607297,39.8170553 C162.114267,38.1943594 162.671768,36.5898674 163.278963,35.0031561 C163.522008,34.3444253 163.765054,33.677651 164.008516,33.004103" id="Fill-48" fill="#FFFFFF"></path>
                    <path d="M165.611362,38.2505988 C165.55909,38.3321105 165.503333,38.4136222 165.44322,38.4955674 C164.944454,39.2079276 164.465291,39.9939951 164.006601,40.8546371 C163.548347,41.7152791 163.330545,42.5464382 163.352325,43.3476808 C163.360166,43.4439339 163.386302,43.55146 163.430734,43.670259 C163.475601,43.6108595 163.516548,43.55146 163.553574,43.4920605 C163.673365,43.3364079 163.770069,43.188126 163.844557,43.0472148 C164.560252,41.5188707 165.148752,39.9198541 165.611362,38.2505988 M163.129297,45.4617818 C162.637065,45.3356121 162.307314,45.0594263 162.139607,44.6327906 C161.9719,44.206155 161.904817,43.7409313 161.937923,43.2362526 C161.9719,42.7315738 162.04116,42.2975674 162.14527,41.9342334 C162.5029,40.7618525 163.011684,39.6415004 163.671187,38.5736105 C164.331125,37.5048536 165.025912,36.4850903 165.756418,35.5130201 C165.9128,35.3053387 166.069617,35.1011259 166.225998,34.9008152 C166.293081,34.8119328 166.360599,34.7191482 166.427247,34.6224615 C166.405031,34.4446966 166.464708,34.2664982 166.606279,34.0882998 C166.62109,34.0661876 166.636336,34.0479775 166.651147,34.0328025 C166.658552,34.018061 166.669877,34.0067881 166.684688,33.9994174 C166.706904,33.8879891 166.73304,33.7730924 166.763096,33.6542934 C166.912073,32.9865913 167.068454,32.3262599 167.232676,31.6737328 C168.387895,26.8142487 169.483437,21.936121 170.519736,17.0393496 C170.534547,16.9725794 170.549357,16.9058092 170.564168,16.839039 C170.735795,16.0156842 170.903067,15.180623 171.067289,14.335156 C171.268538,13.2520911 171.49026,12.1685927 171.732891,11.0855278 C171.97465,10.0024629 172.27086,8.94151021 172.621521,7.90266975 C172.74044,7.62084742 172.929056,7.46129262 173.186498,7.42400536 C173.443068,7.38715167 173.666968,7.44828544 173.857326,7.60784023 C174.046813,7.76739503 174.097343,7.99545433 174.007609,8.29201813 C173.515813,9.76876713 173.09807,11.2841041 172.755686,12.8384626 C172.412867,14.3928212 172.100104,15.9523826 171.816526,17.518014 C171.563005,18.8976427 171.291189,20.2629635 171.000206,21.6131092 C170.992801,21.665138 170.981475,21.7171667 170.966665,21.7691955 C170.244,25.1371891 169.483437,28.4947769 168.686284,31.8406583 C169.446411,30.9652748 170.232238,30.1154721 171.045074,29.2921173 C171.171834,29.1585769 171.313405,29.0098614 171.469786,28.8468381 C171.924556,28.3421593 172.444666,27.8470191 173.029681,27.360984 C173.614695,26.8753825 174.212778,26.6174066 174.823929,26.5879237 C175.167184,26.6174066 175.398054,26.7956051 175.517409,27.1220854 C175.658544,27.5448189 175.623261,27.9584474 175.411122,28.3625372 C175.198983,28.7670607 174.908001,29.1438354 174.539045,29.492428 C174.170089,29.8410205 173.818122,30.1453886 173.482272,30.4046652 C173.392973,30.471869 173.31108,30.534737 173.236592,30.5941365 C172.572733,31.1282982 171.894935,31.6477184 171.201455,32.1519636 C170.717064,32.5083605 170.232238,32.8716945 169.747848,33.2428328 C170.329378,33.3243445 170.850795,33.4431434 171.313405,33.5987961 C172.275216,33.9179057 173.083695,34.4022065 173.739713,35.051265 C174.395296,35.7003235 174.954174,36.4664467 175.416785,37.3492009 C175.878524,38.2766132 176.311078,39.3336637 176.713575,40.520786 C177.093856,41.6112217 177.522489,42.6760765 177.999475,43.714917 C178.47646,44.7533238 179.084126,45.6360781 179.822037,46.3631797 C180.559949,47.0902813 181.499109,47.5281898 182.639517,47.6764717 C182.945311,47.7285005 183.150044,47.8767824 183.254589,48.121751 C183.358698,48.3667197 183.360876,48.5982476 183.260252,48.8172018 C183.159192,49.0361561 182.952716,49.1345771 182.639517,49.1120313 C181.387594,48.9563787 180.345632,48.5540231 179.514502,47.9049646 C178.683371,47.2554725 177.989891,46.4507614 177.434933,45.4899641 C176.879539,44.5287331 176.396891,43.5033334 175.986989,42.4128978 C175.852823,42.0638717 175.718658,41.7152791 175.584492,41.3666866 C175.300914,40.5875563 174.993379,39.8196988 174.661885,39.0631142 C174.330391,38.3060961 173.929636,37.5863652 173.460492,36.9043552 C172.781822,35.9175435 171.868363,35.2572121 170.720549,34.923361 C170.37773,34.8119328 169.962165,34.7208825 169.474289,34.6506437 C168.985978,34.5799714 168.540792,34.6116222 168.138295,34.7451626 C168.070777,34.834045 167.999773,34.923361 167.925285,35.0122435 C167.910475,35.04216 167.891744,35.0677408 167.869964,35.089853 C167.601197,36.1286934 167.318055,37.1675339 167.019667,38.2059408 C166.975235,38.3841392 166.912073,38.6325764 166.829744,38.951686 C166.703419,39.50796 166.531791,40.1682913 166.315297,40.9326802 C166.099238,41.6966355 165.840054,42.4423808 165.538617,43.1694824 C165.236744,43.896584 164.884341,44.4810401 164.481844,44.9224172 C164.079347,45.3637944 163.628498,45.5437271 163.129297,45.4617818" id="Fill-50" fill="#FFFFFF"></path>
                    <g id="Group-54" transform="translate(176.819809, 25.947644)">
                        <mask id="mask-4" fill="white">
                            <use xlink:href="#path-3"></use>
                        </mask>
                        <g id="Clip-53"></g>
                        <path d="M6.06976968,1.58436029 C5.40278128,1.65022739 4.76382127,1.95946057 4.15288967,2.51205985 C3.54239602,3.06465912 3.01949112,3.6886857 2.58505087,4.38371188 C3.12415969,4.43503689 3.66983766,4.33452541 4.22033302,4.08174974 C4.77126632,3.82940177 5.23811441,3.55695151 5.6200014,3.26397124 C5.82977648,3.11042392 6.06013492,2.89828055 6.31151466,2.62711341 C6.56245646,2.35680169 6.7008467,2.11300789 6.72712333,1.89701514 C6.75339996,1.6814501 6.53442806,1.57708925 6.06976968,1.58436029 M4.29346963,10.7621275 C2.94460273,10.6962604 1.88609256,10.2150884 1.11793914,9.3186116 C0.349785713,8.42213476 0.0822020513,7.32249642 0.313874321,6.01969658 C0.584085646,4.8268178 1.15910586,3.71263737 2.03981084,2.67672759 C2.92051582,1.64124551 3.93742132,0.885484736 5.09184118,0.409445268 C5.72861146,0.183187515 6.33209802,0.148115425 6.90142496,0.305512122 C7.4707519,0.46290882 7.8736602,0.770431172 8.10971191,1.22765147 C8.34576361,1.68487177 8.27656849,2.25800105 7.90212654,2.94575618 C7.54213674,3.54583109 7.03061838,4.08388828 6.36757147,4.55950004 C5.70408661,5.0351118 4.9810414,5.38112791 4.19799788,5.59669295 C3.41495437,5.8126857 2.65993926,5.832788 1.93295255,5.65699984 C1.92550751,5.67196963 1.91806246,5.6903611 1.91061742,5.71217422 C1.90273443,5.74168611 1.89178583,5.77077028 1.87689574,5.79985445 C1.55413116,6.8391859 1.61631918,7.63344043 2.06258391,8.18219033 C2.50797276,8.73094023 3.15262603,9.06412509 3.99566785,9.1813172 C4.83870966,9.2985093 5.68350325,9.23264221 6.53048656,8.98371591 C7.80446508,8.61032646 9.04647369,8.07782948 10.2569504,7.38622497 C11.4669891,6.69462046 12.5368858,5.88411301 13.4662025,4.95470262 C13.6983127,4.74983029 13.9326127,4.69123423 14.1686644,4.77891446 C14.4047161,4.86702239 14.569383,5.02784076 14.6631029,5.26222497 C14.7568229,5.49618147 14.7025179,5.72714402 14.5001878,5.95382948 C13.6755397,6.7882886 12.6998009,7.57484438 11.5716576,8.31392453 C10.4439524,9.05343238 9.25274522,9.64965791 7.99716035,10.1034565 C6.74201342,10.5572552 5.50744985,10.7770973 4.29346963,10.7621275" id="Fill-52" fill="#FFFFFF" mask="url(#mask-4)"></path>
                    </g>
                </g>
                <path d="M42.9509639,24.1256545 C42.9509639,24.1256545 31.2629212,16.3729758 36.5613428,14.1848564 C40.5488888,12.5373063 41.5129295,16.3162076 41.5129295,16.3162076 C41.5129295,16.3162076 43.8579732,8.70756778 46.285818,11.794659 C49.6895322,16.1221788 42.9509639,24.1256545 42.9509639,24.1256545" id="Fill-55" fill="#FFF000"></path>
            </g>
        </g>
    </g>
</svg>